<svg xmlns="http://www.w3.org/2000/svg" xmlns:xlink="http://www.w3.org/1999/xlink" viewBox="0 424.7 1200 1150.2"><defs><path id="a" d="M0 424.7h1200v1150.7H0z"/></defs><clipPath id="b"><use xlink:href="#a" overflow="visible"/></clipPath><path clip-path="url(#b)" fill="#161E29" d="M1334.8 1795.6l26.3-1370.9L-217 385.2l-134.8 1190.1 1009.3 286.1z"/><defs><path id="c" d="M0 424.7h1200v1150.7H0z"/></defs><clipPath id="d"><use xlink:href="#c" overflow="visible"/></clipPath><path clip-path="url(#d)" fill="#C33" d="M339.3 729.8c-228.1 0-413 184.9-413 413s184.9 413 413 413 413-184.9 413-413-184.9-413-413-413zm0 808.8c-218.6 0-395.8-177.2-395.8-395.8S120.7 747 339.3 747s395.8 177.2 395.8 395.8-177.2 395.8-395.8 395.8z"/><circle clip-path="url(#d)" fill="#C33" cx="339.3" cy="1142.8" r="387.3"/><path clip-path="url(#d)" fill="#C33" d="M982.7 858.8c-228.1 0-413 184.9-413 413s184.9 413 413 413 413-184.9 413-413-184.9-413-413-413zm0 808.8c-218.6 0-395.8-177.2-395.8-395.8S764.1 876 982.7 876s395.8 177.2 395.8 395.8-177.1 395.8-395.8 395.8z"/><circle clip-path="url(#d)" fill="#C33" cx="982.7" cy="1271.8" r="387.3"/></svg>