<svg xmlns="http://www.w3.org/2000/svg" viewBox="0 255.3 1200 1150.7"><path fill="#161E29" stroke="#000" stroke-miterlimit="10" d="M1334.8 1606.6l26.3-1371L-217 196.2l-134.8 1190.1 1009.3 286z"/><path fill="none" stroke="#000" stroke-miterlimit="10" d="M0 255.3h1200V1406H0z"/><path fill="#C33" stroke="#000" stroke-miterlimit="10" d="M-186.7 738.6l1514.3-325.4v894.2l-1514.3 325.5z"/><path fill="#C33" stroke="#000" stroke-miterlimit="10" d="M-186.7 758.4l1514.3-325.5v894.2l-1514.3 325.5z"/><path fill="#C33" stroke="#000" stroke-miterlimit="10" d="M-186.7 778.1l1514.3-325.5v894.2l-1514.3 325.5z"/><path fill="#C33" stroke="#000" stroke-miterlimit="10" d="M-186.7 801.1l1514.3-325.5v894.3l-1514.3 325.4z"/><path fill="#C33" stroke="#000" stroke-miterlimit="10" d="M-186.7 817.5l1514.3-325.4v894.2l-1514.3 325.5z"/><path fill="#C33" stroke="#000" stroke-miterlimit="10" d="M-186.7 834l1514.3-325.5v894.2l-1514.3 325.5z"/><path fill="#C33" stroke="#000" stroke-miterlimit="10" d="M-186.7 850.4l1514.3-325.5v894.3l-1514.3 325.5z"/></svg>