<svg xmlns="http://www.w3.org/2000/svg" xmlns:xlink="http://www.w3.org/1999/xlink" viewBox="0 848.8 1200 1151.2"><defs><path id="a" d="M0 849.6h1200v1150.7H0z"/></defs><clipPath id="b"><use xlink:href="#a" overflow="visible"/></clipPath><path clip-path="url(#b)" fill="#161E29" d="M1334.8 2220.5l26.3-1370.9L-217 810.1l-134.8 1190.1 1009.3 286.1z"/><defs><path id="c" d="M0 849.6h1200v1150.7H0z"/></defs><clipPath id="d"><use xlink:href="#c" overflow="visible"/></clipPath><path clip-path="url(#d)" fill="#C33" d="M472.8 1234.2c-319.2 0-578 258.8-578 578s258.8 578 578 578 578-258.8 578-578-258.8-578-578-578zm0 1132c-305.9 0-554-248-554-554s248-554 554-554 554 248 554 554-248.1 554-554 554z"/><defs><path id="e" d="M0 849.6h1200v1150.7H0z"/></defs><clipPath id="f"><use xlink:href="#e" overflow="visible"/></clipPath><circle clip-path="url(#f)" fill="#C33" cx="472.8" cy="1812.2" r="542"/></svg>