<?xml version="1.0" encoding="utf-8"?>
<!-- Generator: Adobe Illustrator 18.1.1, SVG Export Plug-In . SVG Version: 6.00 Build 0)  -->
<!DOCTYPE svg PUBLIC "-//W3C//DTD SVG 1.1//EN" "http://www.w3.org/Graphics/SVG/1.1/DTD/svg11.dtd">
<svg version="1.1" id="Layer_1" xmlns="http://www.w3.org/2000/svg" xmlns:xlink="http://www.w3.org/1999/xlink" x="0px" y="0px"
	 viewBox="0 849.6 1200 1150.4" enable-background="new 0 849.6 1200 1150.4" xml:space="preserve">
<rect y="849.6" fill="none" width="1200" height="1150.7"/>
<polygon fill="#663333" points="1334.8,2220.5 1361.1,849.6 -217,810.1 -351.8,2000.2 657.5,2286.3 "/>
<g>
	<g>
		<defs>
			<rect id="SVGID_1_" y="849.6" width="1200" height="1150.7"/>
		</defs>
		<clipPath id="SVGID_2_">
			<use xlink:href="#SVGID_1_"  overflow="visible"/>
		</clipPath>
		<path clip-path="url(#SVGID_2_)" fill="#CC3333" d="M339.3,1154.7c-228.1,0-413,184.9-413,413s184.9,413,413,413
			s413-184.9,413-413C752.3,1339.6,567.4,1154.7,339.3,1154.7z M339.3,1963.5c-218.6,0-395.8-177.2-395.8-395.8
			c0-218.6,177.2-395.8,395.8-395.8s395.8,177.2,395.8,395.8S557.9,1963.5,339.3,1963.5z"/>
	</g>
	<g>
		<defs>
			<rect id="SVGID_3_" y="849.6" width="1200" height="1150.7"/>
		</defs>
		<clipPath id="SVGID_4_">
			<use xlink:href="#SVGID_3_"  overflow="visible"/>
		</clipPath>
		<circle clip-path="url(#SVGID_4_)" fill="#CC3333" cx="339.3" cy="1567.7" r="387.3"/>
	</g>
	<g>
		<defs>
			<rect id="SVGID_5_" y="849.6" width="1200" height="1150.7"/>
		</defs>
		<clipPath id="SVGID_6_">
			<use xlink:href="#SVGID_5_"  overflow="visible"/>
		</clipPath>
		<path clip-path="url(#SVGID_6_)" fill="#CC3333" d="M982.7,1283.7c-228.1,0-413,184.9-413,413s184.9,413,413,413
			s413-184.9,413-413C1395.7,1468.6,1210.8,1283.7,982.7,1283.7z M982.7,2092.5c-218.6,0-395.8-177.2-395.8-395.8
			c0-218.6,177.2-395.8,395.8-395.8s395.8,177.2,395.8,395.8S1201.4,2092.5,982.7,2092.5z"/>
	</g>
	<g>
		<defs>
			<rect id="SVGID_7_" y="849.6" width="1200" height="1150.7"/>
		</defs>
		<clipPath id="SVGID_8_">
			<use xlink:href="#SVGID_7_"  overflow="visible"/>
		</clipPath>
		<circle clip-path="url(#SVGID_8_)" fill="#CC3333" cx="982.7" cy="1696.7" r="387.3"/>
	</g>
</g>
</svg>
