<?xml version="1.0" encoding="utf-8"?>
<!-- Generator: Adobe Illustrator 18.1.1, SVG Export Plug-In . SVG Version: 6.00 Build 0)  -->
<!DOCTYPE svg PUBLIC "-//W3C//DTD SVG 1.1//EN" "http://www.w3.org/Graphics/SVG/1.1/DTD/svg11.dtd">
<svg version="1.1" id="Layer_1" xmlns="http://www.w3.org/2000/svg" xmlns:xlink="http://www.w3.org/1999/xlink" x="0px" y="0px"
	 viewBox="0 680 1200 1320" enable-background="new 0 680 1200 1320" xml:space="preserve">
<polygon fill="#663333" points="1334.8,2031.2 1361.1,660.3 -217,620.9 -351.8,1811 657.5,2097 "/>
<rect y="680" fill="none" stroke="#000000" stroke-miterlimit="10" width="1200" height="1150.7"/>
<polygon fill="#CC3333" stroke="#000000" stroke-miterlimit="10" points="-186.7,1163.2 1327.6,837.9 1327.6,1732.1 -186.7,2057.6 
	"/>
<polygon fill="#CC3333" stroke="#000000" stroke-miterlimit="10" points="-186.7,1183.1 1327.6,857.6 1327.6,1751.8 -186.7,2077.2 
	"/>
<polygon fill="#CC3333" stroke="#000000" stroke-miterlimit="10" points="-186.7,1202.8 1327.6,877.3 1327.6,1771.5 -186.7,2097 "/>
<polygon fill="#CC3333" stroke="#000000" stroke-miterlimit="10" points="-186.7,1225.8 1327.6,900.3 1327.6,1794.6 -186.7,2120 "/>
<polygon fill="#CC3333" stroke="#000000" stroke-miterlimit="10" points="-186.7,1242.2 1327.6,916.8 1327.6,1811 -186.7,2136.5 "/>
<polygon fill="#CC3333" stroke="#000000" stroke-miterlimit="10" points="-186.7,1258.7 1327.6,933.2 1327.6,1827.3 -186.7,2152.9 
	"/>
<polygon fill="#CC3333" stroke="#000000" stroke-miterlimit="10" points="-186.7,1275.1 1327.6,949.6 1327.6,1843.8 -186.7,2169.4 
	"/>
</svg>
