
<svg width="203px" height="77px" viewBox="411 232 203 77" version="1.1" xmlns="http://www.w3.org/2000/svg" xmlns:xlink="http://www.w3.org/1999/xlink">
    <!-- Generator: Sketch 3.8.3 (29802) - http://www.bohemiancoding.com/sketch -->
    <desc>Created with Sketch.</desc>
    <defs>
        <polygon id="path-1" points="2.23283808e-20 77 203 77 203 0 4.61389195e-15 1.17065625e-14 0 77"></polygon>
    </defs>
    <g id="Page-1" stroke="none" stroke-width="1" fill="none" fill-rule="evenodd" transform="translate(411.000000, 232.000000)">
        <mask id="mask-2" fill="white">
            <use xlink:href="#path-1"></use>
        </mask>
        <g id="Clip-2"></g>
        <path d="M193.989879,54.0366638 C185.677198,59.2922989 177.000409,60.8549854 169.47031,60.7017647 C170.152393,58.8351081 170.510734,56.9025501 170.512382,54.9782297 C170.528857,47.0486461 164.442007,39.4576307 151.161157,37.4410485 C157.234003,37.1930945 162.902377,34.6698954 167.477606,28.8335043 C169.529622,26.2205146 170.510734,22.8924948 170.510734,19.575184 C170.510734,18.7884863 170.435771,18.0050836 170.324562,17.2257998 C170.542861,17.2340375 170.761984,17.2365088 170.976989,17.246394 C181.889495,18.1245299 192.984878,21.9385723 198.245485,30.2602692 C203.598354,38.5531343 201.547162,49.6591645 193.989879,54.0366638 M160.375869,69.9996258 C153.830178,74.1324662 146.968158,75.86732 139.894429,75.8689675 C121.679186,75.8846191 102.06765,64.2316074 84.0212798,52.0637412 C83.1662047,51.4887516 82.2995967,50.9228235 81.4296936,50.3634855 C88.4268117,47.1458506 95.3679133,43.5072706 102.2184,39.7385354 C109.011223,35.9821566 115.896308,32.3575807 122.815991,29.1506547 C123.049943,29.237974 123.298722,29.2923427 123.565624,29.2923427 C124.114256,29.2923427 124.610167,29.078987 124.987454,28.7379473 C131.433469,32.5907068 138.176041,35.7284363 144.678896,36.9303128 C144.62288,36.9303128 144.566863,36.9270177 144.510847,36.9270177 C133.586808,36.9500832 121.57292,40.8835719 119.435232,49.7761395 C119.220227,50.6888736 119.11808,51.5620669 119.119727,52.3924243 C119.113137,56.3234417 121.399104,59.1926231 124.408342,60.9999684 C127.419229,62.8147277 131.180571,63.6516753 134.404814,63.6574416 C134.495429,63.6541466 134.587691,63.6574416 134.686544,63.6541466 C141.730617,63.5487043 145.88737,59.5427241 145.90714,55.5878175 C145.910435,54.6660219 145.664951,53.7615255 145.189635,52.9402295 C145.198696,52.9319919 145.208582,52.9245779 145.217643,52.9163403 C147.087605,54.6462515 150.201463,56.9396196 155.081487,58.7593215 C158.482017,59.9447226 162.90732,61.0625747 167.943037,61.454688 C166.472604,64.7233965 163.907379,67.7416797 160.375869,69.9996258 M33.8543979,59.7758503 C33.7365985,58.9998615 33.6558689,58.2164588 33.6558689,57.4272898 C33.6558689,54.3266298 34.5776696,51.2449165 36.4484554,48.8675242 C41.1060615,42.9512277 46.7357183,40.6759825 52.9222449,40.6652735 C60.6170978,40.6553883 69.1587881,44.291497 77.2877687,49.1237158 C62.7449005,55.5960552 48.0899992,60.0411033 33.8543979,59.7758503 M32.0215055,59.7198341 C21.1114711,58.842522 10.0144405,55.0293033 4.75465723,46.7067826 C-0.598212261,38.4139176 1.4513321,27.3070636 9.0077913,22.9303881 C17.3410673,17.6632202 26.036803,16.1046526 33.5784343,16.2661109 C32.889761,18.1426528 32.5248301,20.0859197 32.5248301,22.0217728 C32.5116498,29.949709 38.591086,37.5390768 51.8645219,39.5589541 C45.7974422,39.8093793 40.1315394,42.334226 35.5604294,48.1681458 C33.5084137,50.7803118 32.5273014,54.1075077 32.5248301,57.4272898 C32.5248301,58.2024548 32.597322,58.973501 32.7044124,59.7412521 C32.4786989,59.7330144 32.2480428,59.7305431 32.0215055,59.7198341 M34.7770223,16.3056518 C39.8456906,16.5387779 44.339366,17.522356 47.7654331,18.6327943 C52.7459577,20.3281073 55.9372499,22.5745206 57.8376916,24.2484157 C57.373908,24.6380576 57.074055,25.2146947 57.074055,25.8687659 C57.074055,27.0451056 58.0271591,27.9965568 59.2026815,27.9965568 C60.3798515,27.9965568 61.3304842,27.0451056 61.3304842,25.8687659 C61.3304842,24.6924263 60.3798515,23.7401513 59.2026815,23.7401513 C59.128542,23.7401513 59.0593452,23.7541554 58.9901484,23.762393 C58.496709,23.0407729 58.2602865,22.24419 58.2578152,21.4146563 C58.2355734,18.3098775 61.7110668,14.5839782 68.3663196,14.4768884 C68.4561107,14.4744171 68.5459019,14.4744171 68.6315741,14.4744171 C71.661407,14.4719458 75.2621138,15.2850041 78.0439913,16.9671369 C80.8341066,18.665745 82.7798557,21.1419894 82.7864458,24.6075783 C82.7864458,25.3456737 82.6950072,26.1323715 82.5022446,26.9742616 C80.745963,34.9030215 69.2559932,38.9666654 58.5280124,38.9419524 C57.4348671,38.9444237 56.3524309,38.8991165 55.2872939,38.8200349 C40.0153876,37.6041544 33.6731681,29.8978116 33.6558689,22.0217728 C33.6542213,20.1073377 34.0422179,18.1739559 34.7770223,16.3056518 M42.6638141,7.00449559 C49.2062101,2.86836016 56.0690534,1.13185877 63.1427823,1.13185877 C81.3580255,1.11703095 100.968738,12.7667476 119.017579,24.9379089 C119.844646,25.4939518 120.683246,26.0425808 121.525141,26.5846197 C121.521846,26.5953287 121.517727,26.6052139 121.515256,26.6159228 C114.537908,29.8286152 107.614929,33.4614288 100.785861,37.2235739 C93.9452593,41.0021943 87.014043,44.6473645 80.0465807,47.8691182 C79.8299287,47.795803 79.6017439,47.7463769 79.3595549,47.7463769 C78.8455213,47.7463769 78.3776189,47.9366672 78.0110404,48.2406373 C71.5749109,44.3985868 64.8488138,41.2707425 58.3591391,40.0696898 C58.4151556,40.0696898 58.4711721,40.0729849 58.5280124,40.0729849 C69.4528747,40.0507431 81.464292,36.1180782 83.6036275,27.2271581 C83.8145131,26.3103052 83.9183084,25.4346406 83.9183084,24.6075783 C83.9224272,20.6749133 81.6364603,17.8032607 78.6288693,16.0000341 C75.6163357,14.1852748 71.8574647,13.3483273 68.6315741,13.3433847 C68.5384879,13.3433847 68.4404591,13.345856 68.3465491,13.3483273 C61.3032997,13.4496507 57.1490183,17.4581022 57.1267764,21.4146563 C57.1251289,22.3759927 57.3912072,23.32003 57.9101835,24.1693341 C56.0550493,22.4270663 52.9107121,20.0686206 47.9178309,18.2077304 C44.5288335,17.0264481 40.1241254,15.911891 35.1081786,15.515659 C36.5802589,12.2576594 39.1397181,9.25338022 42.6638141,7.00449559 M168.271722,60.6638714 C163.18246,60.4348641 158.672309,59.4471671 155.234709,58.3334338 C150.375279,56.6809567 147.22188,54.502916 145.306611,52.8438488 C145.739914,52.4542068 146.018349,51.8940451 146.018349,51.2646869 C146.018349,50.089171 145.065245,49.1368961 143.889723,49.1368961 C142.7142,49.1368961 141.760273,50.089171 141.760273,51.2646869 C141.760273,52.4418503 142.7142,53.3933015 143.889723,53.3933015 C143.974571,53.3933015 144.054477,53.3784737 144.136854,53.3685885 C144.570158,54.0547866 144.778573,54.8060624 144.78022,55.5878175 C144.799991,58.6893013 141.326145,62.4143768 134.670892,62.5264092 L134.404814,62.5264092 C131.374981,62.5297042 127.774274,61.7158222 124.991573,60.0312181 C122.202281,58.3342576 120.256532,55.8571894 120.250766,52.3924243 C120.250766,51.6535051 120.341381,50.8659836 120.535791,50.0298598 C122.292073,42.1002761 133.782866,38.0333371 144.510847,38.0580501 C145.603992,38.0547551 146.686428,38.097591 147.745799,38.182439 C163.024295,39.3974957 169.36322,47.1030147 169.382167,54.9782297 C169.38299,56.8811321 168.999113,58.8054524 168.271722,60.6638714 M169.1754,17.189554 C169.296494,17.9770755 169.379695,18.7736585 169.379695,19.575184 C169.38299,22.6733727 168.460366,25.7583811 166.591228,28.1349497 C161.929503,34.0479511 156.298198,36.32402 150.115791,36.3339053 C142.401167,36.3437905 133.833116,32.6920302 125.686013,27.8416885 C140.24618,21.3545213 154.920028,16.9037068 169.1754,17.189554 M199.93257,29.2272651 C194.178523,19.9153999 182.507324,15.8863542 171.169752,14.8129855 C170.705144,14.7858012 170.239713,14.7717971 169.774282,14.754498 C168.795641,11.5294492 166.836712,8.65614895 163.885137,6.93941798 C162.218647,5.97643404 160.082606,5.41297724 158.014115,5.40968217 C155.54939,5.40803463 153.096197,6.22768306 151.855597,8.35629767 L151.960216,8.41643268 C151.810289,8.70722252 151.717203,9.03261059 151.717203,9.38353545 C151.717203,10.5598751 152.670307,11.5121501 153.84583,11.5121501 C155.021352,11.5121501 155.974456,10.5598751 155.974456,9.38353545 C155.974456,8.42549412 155.340152,7.62726364 154.471072,7.35789175 C155.45548,6.80926275 156.687842,6.54153839 158.014115,6.54153839 C159.873368,6.53824332 161.851244,7.06545437 163.318382,7.91887725 C165.870427,9.39259689 167.645656,11.8762552 168.588874,14.7174285 C153.877957,14.4249911 139.080543,18.8329697 124.507195,25.2649445 C124.22217,25.1224328 123.905018,25.0359372 123.565624,25.0359372 C122.998869,25.0359372 122.48813,25.2600019 122.106724,25.6199882 C121.281304,25.0878346 120.45918,24.5507383 119.648589,24.0037568 C101.557735,11.8210628 81.8432271,0.0156541226 63.1427823,2.54460615e-06 C55.8869998,-0.00246875719 48.7827914,1.79499141 42.0558704,6.04974933 C38.22286,8.49716187 35.4409825,11.8161202 33.904648,15.4365773 C26.188377,15.0189273 17.1524236,16.3641392 8.17331041,21.7491058 C4.55530444,24.1956946 1.16301196,28.0286837 0.265924411,33.0058855 C-0.47299894,37.8834115 0.286518707,43.1546982 3.06674871,47.738963 C8.82161886,57.0508282 20.4928184,61.0798739 31.8303904,62.1548901 C32.304883,62.1812507 32.7777281,62.1952547 33.2522207,62.2117301 C34.2275665,65.4499592 36.1897911,68.3364397 39.1528984,70.0630559 C40.8218602,71.0260398 42.9562531,71.5862015 45.0247442,71.5894966 C47.4869982,71.5919679 49.9401908,70.7714957 51.1807912,68.6486475 L51.069582,68.5835699 C51.2203323,68.2911325 51.315066,67.9640969 51.315066,67.6107007 C51.315066,66.4351848 50.3611382,65.4829099 49.1864396,65.4829099 C48.0084458,65.4829099 47.0569893,66.4351848 47.0569893,67.6107007 C47.0569893,68.5728609 47.6970601,69.376034 48.5727295,69.6396395 C47.5866746,70.1907398 46.3534882,70.4592879 45.0247442,70.4592879 C43.1630198,70.462583 41.1867911,69.9378432 39.7221248,69.0835966 C37.1560755,67.5999918 35.3783758,65.1006819 34.4368046,62.2471521 C49.0966484,62.5181715 63.840517,58.1398485 78.3660861,51.745767 C78.6634677,51.9047541 78.9987429,52.0027824 79.3595549,52.0027824 C79.9600846,52.0027824 80.4988314,51.7531809 80.886828,51.3536538 C81.727899,51.8948689 82.5632037,52.4418503 83.3894468,52.9995408 C101.478653,65.1772922 121.194808,76.9843484 139.894429,77 L139.908434,77 C147.160097,77 154.257715,75.2033636 160.982989,70.9568434 C164.825061,68.4978981 167.610233,65.1657595 169.144097,61.5329459 C176.848835,61.943182 185.865841,60.5913799 194.826832,55.217946 C198.442366,52.772181 201.835482,48.9375444 202.733394,43.9619901 C203.473965,39.0836404 202.7128,33.8123537 199.93257,29.2272651" id="Fill-1" fill="#FFFFFF" mask="url(#mask-2)"></path>
    </g>
</svg>