<?xml version="1.0" encoding="utf-8"?>
<!-- Generator: Adobe Illustrator 18.1.1, SVG Export Plug-In . SVG Version: 6.00 Build 0)  -->
<!DOCTYPE svg PUBLIC "-//W3C//DTD SVG 1.1//EN" "http://www.w3.org/Graphics/SVG/1.1/DTD/svg11.dtd">
<svg version="1.1" id="Layer_1" xmlns="http://www.w3.org/2000/svg" xmlns:xlink="http://www.w3.org/1999/xlink" x="0px" y="0px"
	 viewBox="0 0 709.2 142.7" style="enable-background:new 0 0 709.2 142.7;" xml:space="preserve">
<style type="text/css">
	.st0{opacity:0.2;fill:#231F20;}
	.st1{fill:#FFFFFF;}
</style>
<g>
	<path class="st0" d="M103.2,8.8H86.8h0v16.4h0v22.7h0v16.4l0,0v24.1h16.4V64.3h37.3v-0.9V47.9V25.2V8.8h-16.4H103.2z M124.1,47.9
		h-20.9V25.2h20.9V47.9z"/>
	<path class="st0" d="M518.8,8.8h-16.4h0v16.4h0v22.7h0v16.4l0,0v24.1h16.4V64.3h37.3v-0.9V47.9V25.2V8.8h-16.4H518.8z M539.7,47.9
		h-20.9V25.2h20.9V47.9z"/>
	<path class="st0" d="M195.2,8.8h-20.9h-16.4l0,0v16.4l0,0v46.8l0,0v16.4h16.4h20.9h16.4V8.8l0,0H195.2z M174.3,72.1V25.2h20.9v46.8
		H174.3z"/>
	<polygon class="st0" points="301.2,8.5 301.2,24.9 301.2,41.9 301.2,58.3 301.2,71.7 301.2,88.1 317.6,88.1 354.9,88.1 354.9,71.7 
		317.6,71.7 317.6,58.3 334.8,58.3 334.8,41.9 317.6,41.9 317.6,24.9 354.9,24.9 354.9,8.5 317.6,8.5 	"/>
	<polygon class="st0" points="268.1,8.6 239.8,8.6 239.8,8.9 239.7,8.9 234.3,72.1 226.2,72.1 226.2,88.5 249.2,88.5 249.2,87.7 
		249.3,87.7 254.8,25 268.1,25 268.1,88.2 284.5,88.2 284.5,25 284.5,25 284.5,8.6 284.5,8.6 	"/>
	<polygon class="st0" points="31.3,8.8 14.9,8.8 14.9,25.2 14.9,88.5 31.3,88.5 31.3,25.2 52.2,25.2 52.2,88.5 68.6,88.5 68.6,25.2 
		68.6,8.8 52.2,8.8 	"/>
	<polygon class="st0" points="385.8,8.8 368.1,8.8 368.1,25.2 385.8,25.2 385.8,88.5 402.2,88.5 402.2,25.2 421.8,25.2 421.8,8.8 
		402.2,8.8 	"/>
	<path class="st0" d="M477.6,9.7L477.6,9.7l-39.3-0.1v0.1l-0.2,0l-6.6,78.1h16.3l1.7-19.5h17l1.7,19.5h16.3l-6.6-78.1L477.6,9.7z
		 M450.8,51.8L453,26h9.7l2.2,25.8H450.8z"/>
	<path class="st0" d="M684,87.7h16.3l-6.6-78.1l-0.2,0V9.6h-39.3v0.1l-0.2,0l-6.6,78.1h16.3l1.7-19.5h17L684,87.7z M666.7,51.8
		L669,26h9.7l2.2,25.8H666.7z"/>
	<polygon class="st0" points="615.2,8.3 594.3,40.4 589.6,40.4 589.6,8.8 573.2,8.8 573.2,40.4 573.2,56.8 573.2,88.4 589.6,88.4 
		589.6,56.8 595.3,56.8 615.2,87.4 634.5,86.9 608.8,47.9 634.5,8.8 	"/>
	<path class="st1" d="M97.2,2.8H80.8h0v16.4h0v22.7h0v16.4l0,0v24.1h16.4V58.3h37.3v-0.9V41.9V19.2V2.8h-16.4H97.2z M118.1,41.9
		H97.2V19.2h20.9V41.9z"/>
	<path class="st1" d="M512.8,2.8h-16.4h0v16.4h0v22.7h0v16.4l0,0v24.1h16.4V58.3h37.3v-0.9V41.9V19.2V2.8h-16.4H512.8z M533.7,41.9
		h-20.9V19.2h20.9V41.9z"/>
	<path class="st1" d="M189.2,2.8h-20.9h-16.4l0,0v16.4l0,0v46.8l0,0v16.4h16.4h20.9h16.4V2.8l0,0H189.2z M168.3,66.1V19.2h20.9v46.8
		H168.3z"/>
	<polygon class="st1" points="295.2,2.5 295.2,18.9 295.2,35.9 295.2,52.3 295.2,65.7 295.2,82.1 311.6,82.1 348.9,82.1 348.9,65.7 
		311.6,65.7 311.6,52.3 328.8,52.3 328.8,35.9 311.6,35.9 311.6,18.9 348.9,18.9 348.9,2.5 311.6,2.5 	"/>
	<polygon class="st1" points="262.1,2.6 233.8,2.6 233.8,2.9 233.7,2.9 228.3,66.1 220.2,66.1 220.2,82.5 243.2,82.5 243.2,81.7 
		243.3,81.7 248.8,19 262.1,19 262.1,82.2 278.5,82.2 278.5,19 278.5,19 278.5,2.6 278.5,2.6 	"/>
	<polygon class="st1" points="25.3,2.8 8.9,2.8 8.9,19.2 8.9,82.5 25.3,82.5 25.3,19.2 46.2,19.2 46.2,82.5 62.6,82.5 62.6,19.2 
		62.6,2.8 46.2,2.8 	"/>
	<polygon class="st1" points="379.8,2.8 362.1,2.8 362.1,19.2 379.8,19.2 379.8,82.5 396.2,82.5 396.2,19.2 415.8,19.2 415.8,2.8 
		396.2,2.8 	"/>
	<path class="st1" d="M471.6,3.7L471.6,3.7l-39.3-0.1v0.1l-0.2,0l-6.6,78.1h16.3l1.7-19.5h17l1.7,19.5h16.3l-6.6-78.1L471.6,3.7z
		 M444.8,45.8L447,20h9.7l2.2,25.8H444.8z"/>
	<path class="st1" d="M678,81.7h16.3l-6.6-78.1l-0.2,0V3.6h-39.3v0.1l-0.2,0l-6.6,78.1h16.3l1.7-19.5h17L678,81.7z M660.7,45.8
		L663,20h9.7l2.2,25.8H660.7z"/>
	<polygon class="st1" points="609.2,2.3 588.3,34.4 583.6,34.4 583.6,2.8 567.2,2.8 567.2,34.4 567.2,50.8 567.2,82.4 583.6,82.4 
		583.6,50.8 589.3,50.8 609.2,81.4 628.5,80.9 602.8,41.9 628.5,2.8 	"/>
</g>
<g>
	<path class="st1" d="M256.7,119.3h-4.5h0v4.5h0v6.2h0v4.5l0,0v6.6h4.5v-6.6H267v-0.2V130v-6.2v-4.5h-4.5H256.7z M262.5,130h-5.7
		v-6.2h5.7V130z"/>
	<polygon class="st1" points="353.6,119.3 353.6,123.8 353.6,128 347.6,128 347.1,128 347.1,119.3 342.7,119.3 342.7,123.8 
		342.7,136.6 342.7,141.1 347.1,141.1 347.1,132.4 353.6,132.4 353.6,136.6 353.6,141.1 358.1,141.1 358.1,119.3 	"/>
	<path class="st1" d="M207.2,119.3h-5.7H197l0,0v4.5l0,0v12.8l0,0v4.5h4.5h5.7h4.5v-21.8l0,0H207.2z M201.5,136.6v-12.8h5.7v12.8
		H201.5z"/>
	<polygon class="st1" points="428.9,119.3 428.9,123.8 428.9,128.5 428.9,132.9 428.9,136.6 428.9,141.1 433.4,141.1 443.6,141.1 
		443.6,136.6 433.4,136.6 433.4,132.9 438.1,132.9 438.1,128.5 433.4,128.5 433.4,123.8 443.6,123.8 443.6,119.3 433.4,119.3 	"/>
	<polygon class="st1" points="233.4,119.3 233.4,123.8 233.4,128.5 233.4,132.9 233.4,136.6 233.4,141.1 237.9,141.1 248.1,141.1 
		248.1,136.6 237.9,136.6 237.9,132.9 242.6,132.9 242.6,128.5 237.9,128.5 237.9,123.8 248.1,123.8 248.1,119.3 237.9,119.3 	"/>
	<polygon class="st1" points="315,119.3 308.4,132.3 308.4,119.3 303.9,119.3 303.9,141.1 308.4,141.1 315,128.1 315,141.1 
		319.5,141.1 319.5,119.3 	"/>
	<polygon class="st1" points="415,119.3 410.5,119.3 410.5,123.8 410.5,141.1 415,141.1 415,123.8 420.7,123.8 420.7,141.1 
		425.2,141.1 425.2,123.8 425.2,119.3 420.7,119.3 	"/>
	<polygon class="st1" points="219.8,119.3 215.3,119.3 215.3,123.8 215.3,141.1 219.8,141.1 219.8,123.8 225.5,123.8 225.5,141.1 
		230,141.1 230,123.8 230,119.3 225.5,119.3 	"/>
	<polygon class="st1" points="485,119.3 480.2,119.3 480.2,123.8 485,123.8 485,141.1 489.5,141.1 489.5,123.8 494.9,123.8 
		494.9,119.3 489.5,119.3 	"/>
	<polygon class="st1" points="290.1,119.3 285.2,119.3 285.2,123.8 290.1,123.8 290.1,141.1 294.6,141.1 294.6,123.8 299.9,123.8 
		299.9,119.3 294.6,119.3 	"/>
	<path class="st1" d="M476.9,119.5L476.9,119.5l-10.8,0v0l-0.1,0l-1.8,21.4h4.5l0.5-5.3h4.6l0.5,5.3h4.5L476.9,119.5L476.9,119.5z
		 M469.6,131.1l0.6-7.1h2.6l0.6,7.1H469.6z"/>
	<path class="st1" d="M281.7,119.5L281.7,119.5l-10.8,0v0l-0.1,0l-1.8,21.4h4.5l0.5-5.3h4.6l0.5,5.3h4.5L281.7,119.5L281.7,119.5z
		 M274.4,131.1l0.6-7.1h2.6l0.6,7.1H274.4z"/>
	<path class="st1" d="M373.2,119.5L373.2,119.5l-10.8,0v0l-0.1,0l-1.8,21.4h4.5l0.5-5.3h4.6l0.5,5.3h4.5L373.2,119.5L373.2,119.5z
		 M365.8,131.1l0.6-7.1h2.6l0.6,7.1H365.8z"/>
	<path class="st1" d="M338.1,123.8L338.1,123.8l0-4.5l-5.9,0h-3.1h-5.9v4.5h0v4.2h0v4.5h0v0v4.2h0v4.5h0v0h4.5v0l6,0l0,0h4.5l0,0h0
		v-4.5h0l0-3.8l-2.5-2.6l2.5-2.1L338.1,123.8z M333.6,123.8v2.6l-1.9,1.5l-3.4,0h-0.6v-4.2H333.6z M332.2,136.6h-3.1h-1.4v-4.2h4
		l1.9,1.5v2.6H332.2z"/>
	<polygon class="st1" points="451.2,119.3 451.2,125.8 451.2,125.8 451.2,130 456.9,130 456.9,125.8 456.9,125.8 456.9,119.3 
		461.4,119.3 461.4,119.3 461.4,123.8 461.4,123.8 461.4,130 461.4,130 461.4,134.5 461.4,141.1 456.9,141.1 456.9,134.5 
		446.7,134.5 446.7,134.2 446.7,130 446.7,123.8 446.7,119.3 	"/>
	<path class="st1" d="M507.7,127.4l-6,0v-8.1h-4.5v8.1h0h0l0,4.5h0h0v4.7h0h0l0,4.5h0h0v0v0h4.5v0v0l6,0v0v0h4.5v0v-13.7
		L507.7,127.4L507.7,127.4z M501.7,136.6v-4.7l6,0v4.7L501.7,136.6z"/>
	<path class="st1" d="M393.4,123.8v-4.5l0,0h-4.5h-5.7h-4.5v4.5v6.2v4.2v0.2h2.5l-4,6.6h5.3l4-6.6h2.4v6.6h4.5v-6.6V130l0,0V123.8
		L393.4,123.8z M383.2,130v-6.2h5.7v6.2h-5v0H383.2z"/>
</g>
</svg>
