<?xml version="1.0" encoding="utf-8"?>
<!-- Generator: Adobe Illustrator 18.1.1, SVG Export Plug-In . SVG Version: 6.00 Build 0)  -->
<!DOCTYPE svg PUBLIC "-//W3C//DTD SVG 1.1//EN" "http://www.w3.org/Graphics/SVG/1.1/DTD/svg11.dtd">
<svg version="1.1" id="Layer_1" xmlns="http://www.w3.org/2000/svg" xmlns:xlink="http://www.w3.org/1999/xlink" x="0px" y="0px"
	 viewBox="0 370.9 595.3 100.1" enable-background="new 0 370.9 595.3 100.1" xml:space="preserve">
<g>
	<path fill="#FFFFFF" d="M29.1,412.6L29.1,412.6L29.1,412.6c2.1-0.7,3.5-2.1,3.5-3.5v-12.5H17.3v12.5c0,1.4,1.4,2.8,2.8,2.8h0.7v0.7
		H6.2v-0.7h0.7c1.4,0,2.8-1.4,2.8-2.8v-27c0-1.4-1.4-2.8-2.8-2.8H6.2v-0.7h14.6v0.7h-0.7c-1.4,0-2.8,1.4-2.8,2.8v12.5h15.9v-12.5
		c0-1.4-1.4-2.8-2.8-2.8h-1.4v-0.7h14.6v0.7H43c-1.4,0-2.8,1.4-2.8,2.8v27c0,1.4,1.4,2.8,2.8,2.8h0.7v0.7H29.1z"/>
	<path fill="#FFFFFF" d="M72.8,412.6H47.8v-0.7h0.7c1.4,0,2.8-1.4,2.8-2.8v-27c0-1.4-1.4-2.8-2.8-2.8h-0.7v-0.7h18.7
		c2.1,0,4.9-0.7,5.5-0.7v8.3h-0.7v-0.7c0-2.8-2.1-4.9-4.9-4.9h-7.6v13.9h6.2c2.1,0,4.2-2.1,4.2-4.2l0,0H70v11.1h-0.7v-0.7
		c0-2.1-1.4-4.2-4.2-4.2h-6.2v13.9h6.2c4.9,0,8.3-2.8,9.7-7.6h0.7L72.8,412.6z"/>
</g>
<g>
	<path fill="#FFFFFF" d="M94.9,378.7c5.5,0,12.5,2.1,12.5,9c0,5.5-4.2,9.7-9,9c4.2,2.1,6.9,6.2,11.1,11.8
		c5.5,6.9,11.1,11.8,19.4,11.8v0.7c-6.2,2.8-18,3.5-26.3-9c-2.8-3.5-6.9-10.4-9-13.2c-0.7-1.4-1.4-2.8-2.1-2.8v-0.7c0,0,0.7,0,1.4,0
		c2.1,0,6.2-1.4,6.9-5.5c0-0.7,0-1.4,0-2.1c0-4.2-2.8-6.9-6.9-6.9h-3.5v28.4c0,1.4,1.4,2.8,3.5,2.8h0.7v0.7H79v-0.7h0.7
		c1.4,0,2.8-1.4,2.8-2.8v-27c0-1.4-1.4-2.8-2.8-2.8H79v-0.7H94.9z"/>
</g>
<g>
	<path fill="#FFFFFF" d="M128.9,412.6h-14.6v-0.7h0.7c1.4,0,2.8-1.4,2.8-2.8v-27c0-1.4-1.4-2.8-2.8-2.8h-0.7v-0.7h14.6v0.7h-0.7
		c-2.1,0-3.5,1.4-3.5,2.8v27C124.7,410.6,126.1,411.9,128.9,412.6L128.9,412.6L128.9,412.6z"/>
	<path fill="#FFFFFF" d="M162.2,386.3L162.2,386.3L162.2,386.3c-0.7-3.5-2.1-5.5-5.5-5.5h-6.2v28.4c0,1.4,1.4,2.8,2.8,2.8h0.7v0.7
		h-14.6v-0.7h0.7c1.4,0,2.8-1.4,2.8-2.8v-28.4h-6.2c-2.8,0-4.9,2.1-4.9,4.9v0.7H131V378c0.7,0.7,3.5,0.7,5.5,0.7h19.4
		c2.1,0,4.9-0.7,5.5-0.7v8.3H162.2z"/>
	<path fill="#FFFFFF" d="M190.6,409.2c1.4,2.1,2.8,2.8,4.2,2.8h0.7v0.7h-15.2v-0.7l0,0c1.4,0,2.8-1.4,2.1-2.8l-2.8-6.2h-11.1
		l-2.8,6.2c-0.7,2.1,0.7,2.8,2.1,2.8h0.7v0.7H158v-0.7h0.7c1.4,0,2.8-0.7,4.2-2.8l10.4-24.9c0-0.7,2.1-4.9,2.1-6.2h0.7L190.6,409.2z
		 M178.8,400.8l-4.9-11.8l-4.9,11.8H178.8z"/>
	<path fill="#FFFFFF" d="M230.8,396.7c-1.4,0-2.8,0.7-2.1,2.1v8.3c-2.1,2.8-8.3,6.2-15.9,6.2c-11.1,0-18-6.9-18-18
		c0-11.1,6.9-17.3,18.7-17.3c5.5,0,10.4,1.4,13.2,2.8v8.3h-0.7c-2.1-6.9-6.2-9-11.8-9c-7.6,0-12.5,6.2-12.5,15.9
		c0,9.7,4.2,15.2,11.1,15.2c3.5,0,6.9-1.4,8.3-4.9v-7.6c0-1.4-0.7-2.1-2.8-2.1h-0.7V396h13.9v0.7H230.8z"/>
	<path fill="#FFFFFF" d="M258.5,412.6h-24.9v-0.7h0.7c1.4,0,2.8-1.4,2.8-2.8v-27c0-1.4-1.4-2.8-2.8-2.8h-0.7v-0.7h18.7
		c2.1,0,4.9-0.7,5.5-0.7v8.3h-0.7v-0.7c0-2.8-2.1-4.9-4.9-4.9h-8.3v13.9h6.2c2.1,0,4.2-2.1,4.2-4.2l0,0h0.7v11.1h-0.7v-0.7
		c0-2.1-1.4-4.2-4.2-4.2h-6.2v13.9h6.2c4.9,0,8.3-2.8,9.7-7.6h0.7L258.5,412.6z"/>
	<path fill="#FFFFFF" d="M292.4,378.7c8.3,0,11.8,4.2,11.8,9c0,8.3-9,13.2-15.2,8.3v-0.7c0,0,5.5,0.7,7.6-5.5c0-0.7,0-2.1,0-2.8
		c0-4.2-2.1-6.9-6.2-6.9h-3.5v28.4c0,1.4,1.4,2.8,2.8,2.8h1.4v0.7h-14.6v-0.7h0.7c1.4,0,2.8-1.4,2.8-2.8v-26.3
		c0-1.4-1.4-2.8-2.8-2.8h-0.7v-0.7H292.4z"/>
	<path fill="#FFFFFF" d="M324.3,378.7c5.5,0,11.8,2.1,11.8,9c0,4.2-2.8,9-7.6,9c2.1,0.7,4.2,2.8,4.9,4.2c0,0,2.8,4.9,4.9,6.9
		c2.1,2.8,3.5,3.5,6.2,3.5v0.7h-4.9c-5.5,0-9-1.4-11.1-4.9c-1.4-2.1-3.5-6.9-4.2-8.3c-1.4-1.4-2.8-2.8-3.5-2.8v-0.7h1.4
		c2.8,0,5.5-1.4,6.2-5.5c0-0.7,0-1.4,0-2.1c0-4.9-2.8-6.9-5.5-6.9c-1.4,0-2.8,0-3.5,0v28.4c0,1.4,1.4,2.8,3.5,2.8h0.7v0.7h-14.6
		v-0.7h0.7c1.4,0,2.8-1.4,2.8-2.8v-27c0-1.4-1.4-2.8-2.8-2.8h-0.7v-0.7H324.3z"/>
	<path fill="#FFFFFF" d="M381.1,395.3c0,11.1-7.6,17.3-19.4,17.3c-11.8,0-19.4-6.9-19.4-17.3c0-10.4,7.6-17.3,19.4-17.3
		C373.5,378,381.1,384.9,381.1,395.3z M372.8,395.3c0-9.7-4.2-15.9-11.1-15.9c-6.9,0-11.1,6.2-11.1,15.9c0,9.7,4.2,15.9,11.1,15.9
		C368.7,411.2,372.8,405,372.8,395.3z"/>
</g>
<g>
	<path fill="#FFFFFF" d="M400.5,378.7c8.3,0,11.8,4.2,11.8,9c0,8.3-9,13.2-15.2,8.3v-0.7c0,0,5.5,0.7,7.6-5.5c0-0.7,0-2.1,0-2.8
		c0-4.2-2.1-6.9-6.2-6.9H395v28.4c0,1.4,1.4,2.8,2.8,2.8h0.7v0.7h-14.6v-0.7h0.7c1.4,0,2.8-1.4,2.8-2.8v-26.3c0-1.4-1.4-2.8-2.8-2.8
		h-0.7v-0.7H400.5z"/>
</g>
<g>
	<path fill="#FFFFFF" d="M440.7,412.6h-24.9v-0.7h0.7c1.4,0,2.8-1.4,2.8-2.8v-27c0-1.4-1.4-2.8-2.8-2.8h-0.7v-0.7h18.7
		c2.1,0,4.9-0.7,5.5-0.7v8.3h-0.7v-0.7c0-2.8-2.1-4.9-4.9-4.9h-8.3v13.9h6.2c2.1,0,4.2-2.1,4.2-4.2l0,0h0.7v11.1h-0.7v-0.7
		c0-2.1-1.4-4.2-4.2-4.2h-6.2v13.9h6.2c4.9,0,8.3-2.8,9.7-7.6h0.7L440.7,412.6z"/>
	<path fill="#FFFFFF" d="M462.9,378.7c5.5,0,11.8,2.1,11.8,9c0,4.2-2.8,9-7.6,9c2.1,0.7,4.2,2.8,4.9,4.2c0,0,2.8,4.9,4.9,6.9
		c2.1,2.8,3.5,3.5,6.2,3.5v0.7h-4.9c-5.5,0-9-1.4-11.1-4.9c-1.4-2.1-3.5-6.9-4.2-8.3c-1.4-1.4-2.8-2.8-4.2-2.8v-0.7h1.4
		c2.8,0,5.5-1.4,6.2-5.5c0-0.7,0-1.4,0-2.1c0-4.9-2.8-6.9-5.5-6.9c-1.4,0-2.8,0-3.5,0v28.4c0,1.4,1.4,2.8,3.5,2.8h0.7v0.7H447v-0.7
		h0.7c1.4,0,2.8-1.4,2.8-2.8v-27c0-1.4-1.4-2.8-2.8-2.8H447v-0.7H462.9z"/>
	<path fill="#FFFFFF" d="M510,386.3L510,386.3L510,386.3c-0.7-3.5-2.1-5.5-5.5-5.5h-6.2v28.4c0,1.4,1.4,2.8,2.8,2.8h0.7v0.7h-14.6
		v-0.7h0.7c1.4,0,2.8-1.4,2.8-2.8v-28.4h-6.2c-2.8,0-4.9,2.1-4.9,4.9v0.7h-0.7V378c0.7,0.7,3.5,0.7,5.5,0.7h19.4
		c2.1,0,4.9-0.7,5.5-0.7v8.3H510z"/>
	<path fill="#FFFFFF" d="M527.4,412.6h-14.6v-0.7h0.7c1.4,0,2.8-1.4,2.8-2.8v-27c0-1.4-1.4-2.8-2.8-2.8h-0.7v-0.7h14.6v0.7h-0.7
		c-1.4,0-2.8,1.4-2.8,2.8v27C523.9,410.6,525.3,411.9,527.4,412.6L527.4,412.6L527.4,412.6z"/>
	<path fill="#FFFFFF" d="M556.5,412.6h-24.9v-0.7h0.7c1.4,0,2.8-1.4,2.8-2.8v-27c0-1.4-1.4-2.8-2.8-2.8h-0.7v-0.7h18.7
		c2.1,0,4.9-0.7,5.5-0.7v8.3h-0.7v-0.7c0-2.8-2.1-4.9-4.9-4.9h-8.3v13.9h6.2c2.1,0,4.2-2.1,4.2-4.2l0,0h0.7v11.1h-0.7v-0.7
		c0-2.1-1.4-4.2-4.2-4.2h-6.2v13.9h6.2c4.9,0,8.3-2.8,9.7-7.6h0.7L556.5,412.6z"/>
</g>
<g>
	<path fill="#FFFFFF" d="M582.8,395.3c11.8,7.6,6.2,22.2-8.3,22.2c-11.8,0-16.6-11.1-10.4-18.7h0.7c-4.9,7.6,0,16.6,9,16.6
		s11.8-9,4.2-14.6l-8.3-5.5c-3.5-2.1-4.9-5.5-4.9-9c0.7-4.9,4.2-8.3,10.4-8.3c1.4,0,4.2,0,6.9,0.7h2.8l-0.7,6.9h-0.7
		c0-3.5-2.8-5.5-6.9-5.5c-3.5,0-6.2,2.1-6.2,4.9c0,2.1,1.4,3.5,3.5,4.2L582.8,395.3z"/>
</g>
<path fill="#FFFFFF" d="M54.7,429.3c6.2,0,9.7,3.5,9.7,9.7c0,7.6-8.3,11.1-13.9,8.3v-0.7c0,0,8.3,1.4,10.4-5.5c0-0.7,0-2.1,0-2.8
	c0.7-4.2-2.1-7.6-6.2-7.6h-5.5v29.1c0,1.4,1.4,2.8,2.8,2.8h0.7v0.7H42.3v-0.7H43c1.4,0,2.8-1.4,2.8-2.8v-27c0-1.4-1.4-2.8-2.8-2.8
	h-0.7v-0.7H54.7z"/>
<path fill="#FFFFFF" d="M81.8,434.1c6.2,0,9.7,2.8,9.7,7.6c0,4.2-3.5,7.6-7.6,8.3c1.4,0.7,2.8,2.1,3.5,3.5c0,0,2.1,2.8,4.2,5.5
	c2.1,2.1,3.5,3.5,6.2,3.5v0.7H97c-5.5,0-7.6-2.8-9-4.2c-0.7-0.7-4.2-6.2-4.9-6.9c-1.4-1.4-2.8-3.5-4.9-3.5V448c0,0,1.4,0,2.8,0
	c2.8,0,5.5,0,6.9-4.2c0-0.7,0.7-1.4,0-2.8c0-3.5-2.8-5.5-6.2-6.2c-2.8,0-4.9,0-5.5,0v24.3c0,1.4,1.4,2.8,2.8,2.8h0.7v0.7H70v-0.7
	h0.7c1.4,0,2.8-1.4,2.8-2.8v-22.2c0-1.4-1.4-2.8-2.8-2.8H70v-0.7h11.8V434.1z"/>
<path fill="#FFFFFF" d="M131,448.7c0,9-7.6,15.2-16.6,15.2s-16.6-6.2-16.6-15.2c0-9,7.6-15.2,16.6-15.2S131,439.7,131,448.7z
	 M127.5,448.7c0-8.3-5.5-13.9-12.5-13.9c-6.9,0-12.5,5.5-12.5,13.9c0,8.3,5.5,13.9,12.5,13.9C122,462.5,127.5,457,127.5,448.7z"/>
<path fill="#FFFFFF" d="M146.9,434.1c6.9,0,11.1,3.5,11.1,8.3c0,7.6-7.6,10.4-13.9,7.6v-0.7c0,0,7.6,2.1,10.4-4.9c0-0.7,0-2.1,0-2.8
	c0-4.2-2.8-6.2-7.6-6.2h-4.9v24.3c0,1.4,1.4,2.8,2.8,2.8h0.7v0.7h-10.4v-0.7h0.7c1.4,0,2.8-1.4,2.8-2.8v-22.2c0-1.4-1.4-2.8-2.8-2.8
	h-0.7v-0.7H146.9z"/>
<path fill="#FFFFFF" d="M181.6,463.2h-19.4v-0.7h0.7c1.4,0,2.8-1.4,2.8-2.8v-22.2c0-1.4-1.4-2.8-2.8-2.8h-0.7v-0.7H176
	c2.1,0,4.9-0.7,5.5-0.7v5.5h-0.7v-0.7c0-1.4-0.7-2.8-2.8-2.8h-10.4V448h8.3c1.4,0,2.1-0.7,2.1-2.1v-0.7h0.7v6.9h-0.7v-0.7
	c0-1.4-0.7-2.1-2.1-2.1h-8.3v12.5h7.6c4.9,0,6.2-2.1,7.6-5.5h0.7L181.6,463.2z"/>
<path fill="#FFFFFF" d="M200.3,434.1c6.2,0,9.7,2.8,9.7,7.6c0,4.2-3.5,7.6-7.6,8.3c1.4,0.7,2.8,2.1,3.5,3.5c0,0,2.1,2.8,4.2,5.5
	c2.1,2.1,3.5,3.5,6.2,3.5v0.7h-1.4c-5.5,0-7.6-2.8-9-4.2c-0.7-0.7-4.2-6.2-4.9-6.9c-1.4-1.4-2.8-3.5-4.9-3.5V448c0,0,1.4,0,2.8,0
	c2.8,0,5.5,0,6.9-4.2c0-0.7,0.7-1.4,0-2.8c0-3.5-2.8-5.5-6.2-6.2c-2.8,0-4.9,0-5.5,0v24.3c0,1.4,1.4,2.8,2.8,2.8h0.7v0.7h-9.7v-0.7
	h0.7c1.4,0,2.8-1.4,2.8-2.8v-22.2c0-1.4-1.4-2.8-2.8-2.8h-0.7v-0.7h12.5V434.1z"/>
<path fill="#FFFFFF" d="M237,434.1c2.1,0,4.9-0.7,5.5-0.7v5.5h-0.7v-0.7c0-1.4-0.7-2.8-2.8-2.8h-9v24.9c0,1.4,1.4,2.8,2.8,2.8h0.7
	v0.7h-9.7v-0.7h0.7c1.4,0,2.8-1.4,2.8-2.8v-24.9h-9c-1.4,0-2.8,1.4-2.8,2.8v0.7h-0.7v-5.5c0.7,0,3.5,0.7,5.5,0.7H237z"/>
<path fill="#FFFFFF" d="M274.4,434.1L274.4,434.1L274.4,434.1c-2.8,0.7-4.2,1.4-4.9,2.8l-9,13.9v9c0,1.4,1.4,2.8,2.8,2.8l0,0v0.7
	h-9.7v-0.7h0.7c1.4,0,2.8-1.4,2.8-2.8v-8.3l-9-13.9c-0.7-1.4-2.8-2.8-4.2-2.8h-0.7v-0.7h11.1v0.7h-0.7c-1.4,0-2.1,1.4-1.4,2.1
	l6.9,12.5l7.6-12.5c0.7-1.4,0-2.1-1.4-2.1h-0.7v-0.7H274.4z"/>
<path fill="#FFFFFF" d="M305.6,429.3c10.4,0,17.3,6.9,17.3,17.3c0,10.4-6.9,16.6-17.3,16.6H289v-0.7h0.7c1.4,0,2.8-1.4,2.8-2.8v-27
	c0-1.4-1.4-2.8-2.8-2.8H289v-0.7H305.6z M296.6,461.8h9.7c8.3,0,13.9-6.2,13.9-15.2c0-9-5.5-15.2-13.9-15.2h-9.7V461.8z"/>
<path fill="#FFFFFF" d="M347.2,463.2h-19.4v-0.7h0.7c1.4,0,2.8-1.4,2.8-2.8v-22.2c0-1.4-1.4-2.8-2.8-2.8h-0.7v-0.7h13.9
	c2.1,0,4.9-0.7,5.5-0.7v5.5h-0.7v-0.7c0-1.4-0.7-2.8-2.8-2.8h-10.4V448h8.3c1.4,0,2.1-0.7,2.1-2.1v-0.7h0.7v6.9h-0.7v-0.7
	c0-1.4-0.7-2.1-2.1-2.1h-8.3v12.5h7.6c4.9,0,6.2-2.1,7.6-5.5h0.7L347.2,463.2z"/>
<path fill="#FFFFFF" d="M383.9,434.1L383.9,434.1L383.9,434.1c-1.4,0.7-3.5,1.4-4.2,3.5l-9.7,21.5c0,0-2.1,3.5-2.1,4.9h-0.7
	l-12.5-26.3c-0.7-2.1-2.8-2.8-3.5-2.8h-0.7v-0.7h9.7v0.7h0c-1.4,0-2.1,1.4-1.4,2.8l9,21.5l9-20.8c0.7-2.1-0.7-2.8-1.4-2.8h-1.4v-1.4
	H383.9z"/>
<path fill="#FFFFFF" d="M405.4,463.2H386v-0.7h0.7c1.4,0,2.8-1.4,2.8-2.8v-22.2c0-1.4-1.4-2.8-2.8-2.8H386v-0.7h13.9
	c2.1,0,4.9-0.7,5.5-0.7v5.5h-0.7v-0.7c0-1.4-0.7-2.8-2.8-2.8h-10.4V448h8.3c1.4,0,2.1-0.7,2.1-2.1v-0.7h0.7v6.9h-0.7v-0.7
	c0-1.4-0.7-2.1-2.1-2.1h-8.3v12.5h7.6c4.9,0,6.2-2.1,7.6-5.5h0.7L405.4,463.2z"/>
<path fill="#FFFFFF" d="M434.5,456.3l-2.8,6.9h-19.4v-0.7h0.7c1.4,0,2.8-1.4,2.8-2.8v-22.2c0-1.4-1.4-2.8-2.8-2.8h-0.7v-0.7h10.4
	v0.7H422c-1.4,0-2.8,1.4-2.8,2.8v24.3h7.6C431,461.8,432.4,459.8,434.5,456.3L434.5,456.3z"/>
<path fill="#FFFFFF" d="M470.5,448.7c0,9-7.6,15.2-16.6,15.2c-9,0-16.6-6.2-16.6-15.2c0-9,7.6-15.2,16.6-15.2
	C462.9,433.4,470.5,439.7,470.5,448.7z M467.1,448.7c0-8.3-5.5-13.9-12.5-13.9s-12.5,5.5-12.5,13.9c0,8.3,5.5,13.9,12.5,13.9
	C460.8,462.5,467.1,457,467.1,448.7z"/>
<path fill="#FFFFFF" d="M485.8,434.1c6.9,0,11.1,3.5,11.1,8.3c0,7.6-7.6,10.4-13.9,7.6v-0.7c0,0,7.6,2.1,10.4-4.9c0-0.7,0-2.1,0-2.8
	c0-4.2-2.8-6.2-7.6-6.2h-4.9v24.3c0,1.4,1.4,2.8,2.8,2.8h1.4v0.7h-10.4v-0.7h0.7c1.4,0,2.8-1.4,2.8-2.8v-22.2c0-1.4-1.4-2.8-2.8-2.8
	h-0.7v-0.7H485.8z"/>
<path fill="#FFFFFF" d="M521.1,463.2h-19.4v-0.7h0.7c1.4,0,2.8-1.4,2.8-2.8v-22.2c0-1.4-1.4-2.8-2.8-2.8h-0.7v-0.7h13.9
	c2.1,0,4.9-0.7,5.5-0.7v5.5h-0.7v-0.7c0-1.4-0.7-2.8-2.8-2.8h-10.4V448h8.3c1.4,0,2.1-0.7,2.1-2.1v-0.7h0.7v6.9h-0.7v-0.7
	c0-1.4-0.7-2.1-2.1-2.1h-8.3v12.5h7.6c4.9,0,6.2-2.1,7.6-5.5h0.7L521.1,463.2z"/>
<path fill="#FFFFFF" d="M539.8,434.1c6.2,0,9.7,2.8,9.7,7.6c0,4.2-3.5,7.6-7.6,8.3c1.4,0.7,2.8,2.1,3.5,3.5c0,0,2.1,2.8,4.2,5.5
	c2.1,2.1,3.5,3.5,6.2,3.5v0.7h-1.4c-5.5,0-7.6-2.8-9-4.2c-0.7-0.7-4.2-6.2-4.9-6.9c-1.4-1.4-2.8-3.5-4.9-3.5V448c0,0,1.4,0,2.8,0
	c2.8,0,5.5,0,6.9-4.2c0-0.7,0.7-1.4,0-2.8c0-3.5-2.8-5.5-6.2-6.2c-2.8,0-4.9,0-5.5,0v24.3c0,1.4,1.4,2.8,2.8,2.8h0.7v0.7h-9.7v-0.7
	h0.7c1.4,0,2.8-1.4,2.8-2.8v-22.2c0-1.4-1.4-2.8-2.8-2.8h-0.7v-0.7h12.5V434.1z"/>
</svg>
