<?xml version="1.0" encoding="UTF-8"?>
<svg width="266px" height="34px" viewBox="0 0 266 34" version="1.1" xmlns="http://www.w3.org/2000/svg" xmlns:xlink="http://www.w3.org/1999/xlink">
    <!-- Generator: Sketch 42 (36781) - http://www.bohemiancoding.com/sketch -->
    <title>logo</title>
    <desc>Created with Sketch.</desc>
    <defs></defs>
    <g id="Page-1" stroke="none" stroke-width="1" fill="none" fill-rule="evenodd">
        <g id="Desktop-HD" transform="translate(-267.000000, -104.000000)">
            <g id="block" transform="translate(210.000000, 0.000000)">
                <g id="logo">
                    <g transform="translate(57.000000, 104.000000)" id="Page-1">
                        <g>
                            <g id="Group-21" transform="translate(2.306358, 2.007211)" fill="#231F1F">
                                <path d="M33.9526705,15.813908 L41.9922514,15.813908 L41.9922514,6.94147126 L33.9526705,6.94147126 L33.9526705,15.813908 Z M33.9526705,0.531885057 L27.6486243,0.531885057 L27.6482399,0.531885057 L27.6482399,6.94147126 L27.6486243,6.94147126 L27.6486243,15.813908 L27.6482399,15.813908 L27.6482399,22.2234943 L27.6482399,31.6551724 L33.9526705,31.6551724 L33.9526705,22.2234943 L48.2962977,22.2234943 L48.2962977,21.8674713 L48.2962977,15.813908 L48.2962977,6.94147126 L48.2962977,0.531885057 L41.9922514,0.531885057 L33.9526705,0.531885057 Z" id="Fill-1"></path>
                                <path d="M193.705275,15.813908 L201.744855,15.813908 L201.744855,6.94147126 L193.705275,6.94147126 L193.705275,15.813908 Z M193.705275,0.531885057 L187.401228,0.531885057 L187.401228,0.531885057 L187.401228,6.94147126 L187.401228,6.94147126 L187.401228,15.813908 L187.401228,15.813908 L187.401228,22.2234943 L187.401228,31.6551724 L193.705275,31.6551724 L193.705275,22.2234943 L208.049286,22.2234943 L208.049286,21.8674713 L208.049286,15.813908 L208.049286,6.94147126 L208.049286,0.531885057 L201.744855,0.531885057 L193.705275,0.531885057 Z" id="Fill-3"></path>
                                <path d="M61.2772514,25.245977 L69.3168324,25.245977 L69.3168324,6.94147126 L61.2772514,6.94147126 L61.2772514,25.245977 Z M69.3168324,0.531885057 L61.2772514,0.531885057 L54.9728208,0.531885057 L54.9728208,6.94147126 L54.9728208,25.2455862 L54.9728208,31.6551724 L61.2772514,31.6551724 L69.3168324,31.6551724 L75.6208786,31.6551724 L75.6208786,0.531885057 L69.3168324,0.531885057 Z" id="Fill-5"></path>
                                <polygon id="Fill-7" points="110.034014 0.394790805 110.034014 6.80437701 110.034014 13.468377 110.034014 19.8779632 110.034014 25.108492 110.034014 31.5180782 116.338444 31.5180782 130.682071 31.5180782 130.682071 25.108492 116.338444 25.108492 116.338444 19.8779632 122.971147 19.8779632 122.971147 13.468377 116.338444 13.468377 116.338444 6.80437701 130.682071 6.80437701 130.682071 0.394790805 116.338444 0.394790805"></polygon>
                                <polygon id="Fill-9" points="97.339548 0.429767816 86.4523832 0.429767816 86.4523832 0.571629885 86.4150971 0.568112644 84.3493688 25.2458598 81.2296347 25.2458598 81.2296347 31.6550552 90.0741347 31.6550552 90.0741347 31.3396759 90.1198775 31.3396759 92.208285 6.83935402 97.339548 6.83935402 97.339548 31.5530552 103.643979 31.5530552 103.643979 6.83935402 103.643979 6.83935402 103.643979 0.429767816 103.643979 0.429767816"></polygon>
                                <polygon id="Fill-11" points="6.30423844 0.531885057 0.000192196532 0.531885057 0.000192196532 6.94147126 0.000192196532 31.6551724 6.30423844 31.6551724 6.30423844 6.94147126 14.3438194 6.94147126 14.3438194 31.6551724 20.6478656 31.6551724 20.6478656 6.94147126 20.6478656 0.531885057 14.3438194 0.531885057"></polygon>
                                <polygon id="Fill-13" points="142.576692 0.531885057 135.768706 0.531885057 135.768706 6.94147126 142.576692 6.94147126 142.576692 31.6551724 148.881123 31.6551724 148.881123 6.94147126 156.416764 6.94147126 156.416764 0.531885057 148.881123 0.531885057"></polygon>
                                <path d="M167.561664,17.332692 L168.421552,7.24250805 L172.135942,7.24250805 L172.996214,17.332692 L167.561664,17.332692 Z M177.844948,0.857933333 L177.844948,0.833312644 L162.727537,0.833312644 L162.727537,0.859496552 L162.638358,0.85168046 L160.085988,31.3539793 L166.366586,31.3539793 L167.015442,23.7422782 L173.542436,23.7422782 L174.191292,31.3539793 L180.47189,31.3539793 L177.919136,0.85168046 L177.844948,0.857933333 Z" id="Fill-15"></path>
                                <path d="M250.554625,17.332692 L251.414513,7.24250805 L255.128903,7.24250805 L255.989175,17.332692 L250.554625,17.332692 Z M257.184253,31.3539793 L263.464851,31.3539793 L260.912097,0.85168046 L260.837909,0.857933333 L260.837909,0.833312644 L245.720498,0.833312644 L245.720498,0.859496552 L245.631319,0.85168046 L243.078949,31.3539793 L249.359547,31.3539793 L250.008403,23.7422782 L256.535397,23.7422782 L257.184253,31.3539793 Z" id="Fill-17"></path>
                                <polygon id="Fill-19" points="230.755269 0.337616092 222.708385 12.8789264 220.907503 12.8789264 220.907503 0.522075862 214.603073 0.522075862 214.603073 12.8789264 214.603073 19.2881218 214.603073 31.6453632 220.907503 31.6453632 220.907503 19.2881218 223.093931 19.2881218 230.755269 31.2287655 238.166752 31.0443057 228.273627 15.7829954 238.166752 0.522075862"></polygon>
                            </g>
                            <path d="M33.9526705,15.476292 L41.9922514,15.476292 L41.9922514,6.60385517 L33.9526705,6.60385517 L33.9526705,15.476292 Z M33.9526705,0.194268966 L27.6486243,0.194268966 L27.6482399,0.194268966 L27.6482399,6.60385517 L27.6486243,6.60385517 L27.6486243,15.476292 L27.6482399,15.476292 L27.6482399,21.8858782 L27.6482399,31.3175563 L33.9526705,31.3175563 L33.9526705,21.8858782 L48.2962977,21.8858782 L48.2962977,21.5298552 L48.2962977,15.476292 L48.2962977,6.60385517 L48.2962977,0.194268966 L41.9922514,0.194268966 L33.9526705,0.194268966 Z" id="Fill-22" fill="#FFFFFF"></path>
                            <path d="M193.705275,15.476292 L201.744855,15.476292 L201.744855,6.60385517 L193.705275,6.60385517 L193.705275,15.476292 Z M193.705275,0.194268966 L187.401228,0.194268966 L187.401228,0.194268966 L187.401228,6.60385517 L187.401228,6.60385517 L187.401228,15.476292 L187.401228,15.476292 L187.401228,21.8858782 L187.401228,31.3175563 L193.705275,31.3175563 L193.705275,21.8858782 L208.049286,21.8858782 L208.049286,21.5298552 L208.049286,15.476292 L208.049286,6.60385517 L208.049286,0.194268966 L201.744855,0.194268966 L193.705275,0.194268966 Z" id="Fill-23" fill="#FFFFFF"></path>
                            <path d="M61.2772514,24.9083609 L69.3168324,24.9083609 L69.3168324,6.60385517 L61.2772514,6.60385517 L61.2772514,24.9083609 Z M69.3168324,0.194268966 L61.2772514,0.194268966 L54.9728208,0.194268966 L54.9728208,6.60385517 L54.9728208,24.9079701 L54.9728208,31.3175563 L61.2772514,31.3175563 L69.3168324,31.3175563 L75.6208786,31.3175563 L75.6208786,0.194268966 L69.3168324,0.194268966 Z" id="Fill-24" fill="#FFFFFF"></path>
                            <polygon id="Fill-25" fill="#FFFFFF" points="110.034014 0.0571747126 110.034014 6.46676092 110.034014 13.1307609 110.034014 19.5403471 110.034014 24.7708759 110.034014 31.1804621 116.338444 31.1804621 130.682071 31.1804621 130.682071 24.7708759 116.338444 24.7708759 116.338444 19.5403471 122.971147 19.5403471 122.971147 13.1307609 116.338444 13.1307609 116.338444 6.46676092 130.682071 6.46676092 130.682071 0.0571747126 116.338444 0.0571747126"></polygon>
                            <polygon id="Fill-26" fill="#FFFFFF" points="97.339548 0.0921517241 86.4523832 0.0921517241 86.4523832 0.234013793 86.4150971 0.230496552 84.3493688 24.9082437 81.2296347 24.9082437 81.2296347 31.3174391 90.0741347 31.3174391 90.0741347 31.0020598 90.1198775 31.0020598 92.208285 6.50173793 97.339548 6.50173793 97.339548 31.2154391 103.643979 31.2154391 103.643979 6.50173793 103.643979 6.50173793 103.643979 0.0921517241 103.643979 0.0921517241"></polygon>
                            <polygon id="Fill-27" fill="#FFFFFF" points="14.3435887 0.194425287 6.3043922 0.194425287 -3.84393064e-05 0.194425287 -3.84393064e-05 6.60362069 -3.84393064e-05 31.3173218 6.3043922 31.3173218 6.3043922 6.60362069 14.3435887 6.60362069 14.3435887 31.3173218 20.6480194 31.3173218 20.6480194 6.60362069 20.6480194 0.194425287"></polygon>
                            <polygon id="Fill-28" fill="#FFFFFF" points="142.576692 0.194268966 135.768706 0.194268966 135.768706 6.60385517 142.576692 6.60385517 142.576692 31.3175563 148.881123 31.3175563 148.881123 6.60385517 156.416764 6.60385517 156.416764 0.194268966 148.881123 0.194268966"></polygon>
                            <path d="M167.561664,16.9950759 L168.421552,6.90489195 L172.135942,6.90489195 L172.996214,16.9950759 L167.561664,16.9950759 Z M177.844948,0.520317241 L177.844948,0.495696552 L162.727537,0.495696552 L162.727537,0.52188046 L162.638358,0.514064368 L160.085988,31.0163632 L166.366586,31.0163632 L167.015442,23.4046621 L173.542436,23.4046621 L174.191292,31.0163632 L180.47189,31.0163632 L177.919136,0.514064368 L177.844948,0.520317241 Z" id="Fill-29" fill="#FFFFFF"></path>
                            <path d="M250.554625,16.9950759 L251.414513,6.90489195 L255.128903,6.90489195 L255.989175,16.9950759 L250.554625,16.9950759 Z M257.184253,31.0163632 L263.464851,31.0163632 L260.912097,0.514064368 L260.837909,0.520317241 L260.837909,0.495696552 L245.720498,0.495696552 L245.720498,0.52188046 L245.631319,0.514064368 L243.078949,31.0163632 L249.359547,31.0163632 L250.008403,23.4046621 L256.535397,23.4046621 L257.184253,31.0163632 Z" id="Fill-30" fill="#FFFFFF"></path>
                            <polygon id="Fill-31" fill="#FFFFFF" points="230.755308 -7.81609195e-05 222.708423 12.5412322 220.907542 12.5412322 220.907542 0.184381609 214.603111 0.184381609 214.603111 12.5412322 214.603111 18.9508184 214.603111 31.307669 220.907542 31.307669 220.907542 18.9508184 223.094354 18.9508184 230.755308 30.8910713 238.167175 30.7070023 228.273282 15.445692 238.167175 0.184381609"></polygon>
                        </g>
                    </g>
                </g>
            </g>
        </g>
    </g>
</svg>