<?xml version="1.0" encoding="UTF-8"?>
<svg width="187px" height="13px" viewBox="0 0 187 13" version="1.1" xmlns="http://www.w3.org/2000/svg" xmlns:xlink="http://www.w3.org/1999/xlink">
    <!-- Generator: Sketch 42 (36781) - http://www.bohemiancoding.com/sketch -->
    <title>оперативная печать</title>
    <desc>Created with Sketch.</desc>
    <defs></defs>
    <g id="Page-1" stroke="none" stroke-width="1" fill="none" fill-rule="evenodd">
        <g id="Desktop-HD" transform="translate(-306.000000, -174.000000)" fill="#FFFFFF">
            <g id="block" transform="translate(210.000000, 0.000000)">
                <g id="logo">
                    <g id="оперативная-печать" transform="translate(96.000000, 174.000000)">
                        <path d="M39.2527218,0 L35.748503,0 L33,0 L33,2.67720764 L33,6.38305489 L33,9.06085919 L33,13 L35.748503,13 L35.748503,9.06085919 L42,9.06085919 L42,8.91169451 L42,6.38305489 L42,2.67720764 L42,0 L39.2527218,0 Z M35.748503,6.38305489 L39.2527218,6.38305489 L39.2527218,2.67720764 L35.748503,2.67720764 L35.748503,6.38305489 Z" id="Fill-1"></path>
                        <polygon id="Fill-2" points="92.3828257 0 92.3828257 2.67720764 92.3828257 5.16169451 88.9064809 5.16169451 88.6165911 5.16169451 88.6165911 0 86 0 86 2.67720764 86 10.323389 86 13 88.6165911 13 88.6165911 7.83830549 92.3828257 7.83830549 92.3828257 10.323389 92.3828257 13 95 13 95 0"></polygon>
                        <path d="M6.25210942,0 L2.74850299,0 L0,0 L0,2.67720764 L0,10.323389 L0,13 L2.74850299,13 L6.25210942,13 L9,13 L9,0 L6.25210942,0 Z M2.74850299,10.3227924 L6.25210942,10.3227924 L6.25210942,2.67720764 L2.74850299,2.67720764 L2.74850299,10.3227924 Z" id="Fill-3"></path>
                        <polygon id="Fill-4" points="139.747704 0 137 0 137 2.67720764 137 5.46062053 137 8.13782816 137 10.323389 137 13 139.747704 13 146 13 146 10.323389 139.747704 10.323389 139.747704 8.13782816 142.638702 8.13782816 142.638702 5.46062053 139.747704 5.46062053 139.747704 2.67720764 146 2.67720764 146 0"></polygon>
                        <polygon id="Fill-5" points="24.7478906 0 22 0 22 2.67720764 22 5.46062053 22 8.13782816 22 10.323389 22 13 24.7478906 13 31 13 31 10.323389 24.7478906 10.323389 24.7478906 8.13782816 27.6390855 8.13782816 27.6390855 5.46062053 24.7478906 5.46062053 24.7478906 2.67720764 31 2.67720764 31 0"></polygon>
                        <polygon id="Fill-6" points="69.4012334 0 65.5941415 7.73177669 65.5941415 0.00655993394 63 0.00655993394 63 13 65.5941415 13 69.4058585 5.26822331 69.4058585 13 72 13 72 0.00655993394"></polygon>
                        <polygon id="Fill-7" points="132.252722 0 128.748503 0 126 0 126 2.67720764 126 13 128.748503 13 128.748503 2.67720764 132.252722 2.67720764 132.252722 13 135 13 135 2.67720764 135 0"></polygon>
                        <polygon id="Fill-8" points="17.2527218 0 13.748503 0 11 0 11 2.67720764 11 13 13.748503 13 13.748503 2.67720764 17.2527218 2.67720764 17.2527218 13 20 13 20 2.67720764 20 0"></polygon>
                        <polygon id="Fill-9" points="173.715024 0 170.967746 0 168 0 168 2.67720764 170.967746 2.67720764 170.967746 13 173.715024 13 173.715024 2.67720764 177 2.67720764 177 0"></polygon>
                        <polygon id="Fill-10" points="57.7150245 0 54.9671339 0 52 0 52 2.67720764 54.9671339 2.67720764 54.9671339 13 57.7150245 13 57.7150245 2.67720764 61 2.67720764 61 0"></polygon>
                        <path d="M159.166092,0 L159.166092,0.0115598821 L159.127016,0.00851780783 L158,13 L160.772571,13 L161.059132,9.75775729 L163.940868,9.75775729 L164.226809,13 L167,13 L165.872984,0.00851780783 L165.84011,0.0109514672 L165.84011,0 L159.166092,0 Z M161.680014,2.72995741 L163.319986,2.72995741 L163.699586,7.02779988 L161.300414,7.02779988 L161.680014,2.72995741 Z" id="Fill-11"></path>
                        <path d="M44.1660924,0 L44.1660924,0.0115598821 L44.1270159,0.00851780783 L43,13 L45.7725706,13 L46.0591316,9.75775729 L48.9408684,9.75775729 L49.2268091,13 L52,13 L50.8736044,0.00851780783 L50.8401103,0.0109514672 L50.8401103,0 L44.1660924,0 Z M46.680634,2.72995741 L48.3199862,2.72995741 L48.6995865,7.02779988 L46.3004135,7.02779988 L46.680634,2.72995741 Z" id="Fill-12"></path>
                        <path d="M98.1660924,0 L98.1660924,0.0115598821 L98.1270159,0.00851780783 L97,13 L99.7725706,13 L100.059132,9.75775729 L102.940868,9.75775729 L103.226809,13 L106,13 L104.872984,0.00851780783 L104.84011,0.0109514672 L104.84011,0 L98.1660924,0 Z M100.680014,2.72995741 L102.319986,2.72995741 L102.699586,7.02779988 L100.300414,7.02779988 L100.680014,2.72995741 Z" id="Fill-13"></path>
                        <path d="M80.4269663,0 L78.5736356,0 L75.0006019,0 L75.0006019,2.67720764 L75.0006019,5.16169451 L75,5.16169451 L75,7.83830549 L75.0006019,7.83830549 L75.0006019,7.83890215 L75.0006019,10.323389 L75.0006019,13 L77.7008427,13 L81.285313,13 L83.9861557,13 L84,13 L84,10.323389 L83.9939807,10.323389 L84,8.04415274 L82.5060193,6.50059666 L84,5.22315036 L83.9939807,2.67720764 L84,2.67720764 L84,0 L80.4269663,0 Z M77.7008427,2.67720764 L81.285313,2.67720764 L81.285313,4.23926014 L80.1163724,5.16169451 L78.0848716,5.16169451 L77.7008427,5.16169451 L77.7008427,2.67720764 Z M77.7008427,7.83830549 L80.1163724,7.83830549 L81.285313,8.74880668 L81.285313,10.323389 L80.4269663,10.323389 L78.5736356,10.323389 L77.7008427,10.323389 L77.7008427,7.83830549 Z" id="Fill-14"></path>
                        <polygon id="Fill-15" points="154.254559 0 154.254559 3.88842482 154.252109 3.88842482 154.252109 6.38305489 150.747891 6.38305489 150.747891 3.88842482 150.746666 3.88842482 150.746666 0 148 0 148 2.67720764 148 6.38305489 148 8.91169451 148 9.06085919 154.252109 9.06085919 154.252109 13 157 13 157 9.06085919 157 6.38305489 157 2.67720764 157 0"></polygon>
                        <path d="M178.020373,0 L178.020373,4.81682578 L178,4.81682578 L178,7.49403341 L178.020373,7.49403341 L178.020373,10.3227924 L178,10.3227924 L178,13 L178.020373,13 L180.708988,13 L184.311385,13 L187,13 L187,4.81682578 L184.311385,4.81682578 L180.708988,4.81682578 L180.708988,0 L178.020373,0 Z M180.708988,10.3221957 L184.311385,10.3221957 L184.311385,7.49403341 L180.708988,7.49403341 L180.708988,10.3221957 Z" id="Fill-16"></path>
                        <path d="M114.223838,0 L110.682777,0 L107.905378,0 L107.905378,2.67720764 L107.905378,6.38305489 L107.905378,8.91169451 L107.905378,9.06085919 L109.446315,9.06085919 L107,13 L110.284238,13 L112.730553,9.06085919 L114.223838,9.06085919 L114.223838,13 L117,13 L117,9.06085919 L117,6.38305489 L117,2.67720764 L117,0 L114.223838,0 Z M110.682777,2.67720764 L114.223838,2.67720764 L114.223838,6.38305489 L111.107927,6.38305489 L110.682777,6.38305489 L110.682777,2.67720764 Z" id="Fill-17"></path>
                    </g>
                </g>
            </g>
        </g>
    </g>
</svg>