<svg xmlns="http://www.w3.org/2000/svg" viewBox="0 680 1200 1320"><path fill="#633" d="M1334.8 2031.2l26.3-1370.9L-217 620.9-351.8 1811l1009.3 286z"/><path fill="none" stroke="#000" stroke-miterlimit="10" d="M0 680h1200v1150.7H0z"/><path fill="#C33" stroke="#000" stroke-miterlimit="10" d="M-186.7 1163.2l1514.3-325.3v894.2l-1514.3 325.5z"/><path fill="#C33" stroke="#000" stroke-miterlimit="10" d="M-186.7 1183.1l1514.3-325.5v894.2l-1514.3 325.4z"/><path fill="#C33" stroke="#000" stroke-miterlimit="10" d="M-186.7 1202.8l1514.3-325.5v894.2L-186.7 2097z"/><path fill="#C33" stroke="#000" stroke-miterlimit="10" d="M-186.7 1225.8l1514.3-325.5v894.3L-186.7 2120z"/><path fill="#C33" stroke="#000" stroke-miterlimit="10" d="M-186.7 1242.2l1514.3-325.4V1811l-1514.3 325.5z"/><path fill="#C33" stroke="#000" stroke-miterlimit="10" d="M-186.7 1258.7l1514.3-325.5v894.1l-1514.3 325.6z"/><path fill="#C33" stroke="#000" stroke-miterlimit="10" d="M-186.7 1275.1l1514.3-325.5v894.2l-1514.3 325.6z"/></svg>