<svg width="203" height="77" viewBox="411 232 203 77" xmlns="http://www.w3.org/2000/svg" xmlns:xlink="http://www.w3.org/1999/xlink"><defs><path id="a" d="M0 77h203V0H0v77z"/></defs><g fill="none" fill-rule="evenodd" transform="translate(411 232)"><mask id="b" fill="#fff"><use xlink:href="#a"/></mask><path d="M193.99 54.037c-8.313 5.255-16.99 6.818-24.52 6.665.682-1.867 1.04-3.8 1.042-5.724.017-7.93-6.07-15.52-19.35-17.537 6.072-.248 11.74-2.771 16.316-8.607 2.052-2.613 3.033-5.942 3.033-9.259 0-.787-.075-1.57-.186-2.35.218.009.437.012.652.021 10.912.879 22.008 4.693 27.268 13.014 5.353 8.293 3.302 19.4-4.255 23.777M160.376 70c-6.546 4.132-13.408 5.867-20.482 5.869-18.215.016-37.826-11.637-55.873-23.805a148.16 148.16 0 0 0-2.591-1.7c6.997-3.218 13.938-6.857 20.788-10.625 6.793-3.757 13.678-7.381 20.598-10.588.234.087.483.141.75.141.548 0 1.044-.213 1.421-.554 6.446 3.853 13.189 6.99 19.692 8.192l-.168-.003c-10.924.023-22.938 3.957-25.076 12.85a11.307 11.307 0 0 0-.315 2.615c-.007 3.931 2.28 6.8 5.288 8.608 3.011 1.815 6.773 2.652 9.997 2.657.09-.003.183 0 .282-.003 7.044-.105 11.2-4.111 11.22-8.066a5.228 5.228 0 0 0-.717-2.648l.028-.024c1.87 1.73 4.983 4.024 9.863 5.843a51.635 51.635 0 0 0 12.862 2.696c-1.47 3.268-4.036 6.287-7.567 8.545M33.854 59.776a15.65 15.65 0 0 1-.198-2.349c0-3.1.922-6.182 2.792-8.56 4.658-5.916 10.288-8.191 16.474-8.202 7.695-.01 16.237 3.626 24.366 8.459C62.745 55.596 48.09 60.04 33.854 59.776m-1.832-.056c-10.91-.877-22.008-4.69-27.267-13.013-5.353-8.293-3.304-19.4 4.253-23.777 8.333-5.267 17.029-6.825 24.57-6.664-.688 1.877-1.053 3.82-1.053 5.756-.013 7.928 6.066 15.517 19.34 17.537-6.068.25-11.733 2.775-16.305 8.61-2.052 2.611-3.033 5.939-3.035 9.258 0 .775.072 1.547.18 2.314-.226-.008-.457-.01-.683-.021m2.755-43.414c5.069.233 9.562 1.216 12.988 2.327 4.981 1.695 8.172 3.942 10.073 5.615a2.11 2.11 0 0 0-.764 1.62 2.127 2.127 0 1 0 4.256 0c0-1.176-.95-2.128-2.127-2.128-.074 0-.144.014-.213.022a4.119 4.119 0 0 1-.732-2.347c-.022-3.105 3.453-6.831 10.108-6.938.09-.003.18-.003.266-.003 3.03-.002 6.63.811 9.412 2.493 2.79 1.699 4.736 4.175 4.742 7.64 0 .739-.091 1.525-.284 2.367-1.756 7.929-13.246 11.993-23.974 11.968a42.483 42.483 0 0 1-3.24-.122c-15.273-1.216-21.615-8.922-21.632-16.798-.002-1.915.386-3.848 1.121-5.716m7.887-9.302c6.542-4.136 13.405-5.872 20.479-5.872 18.215-.015 37.826 11.635 55.875 23.806.827.556 1.665 1.105 2.507 1.647l-.01.03c-6.977 3.214-13.9 6.846-20.73 10.609-6.84 3.778-13.771 7.423-20.738 10.645a2.132 2.132 0 0 0-.687-.123c-.514 0-.982.19-1.349.495-6.436-3.842-13.162-6.97-19.652-8.171.056 0 .112.003.169.003 10.925-.022 22.936-3.955 25.076-12.846.21-.917.314-1.792.314-2.62.004-3.932-2.282-6.804-5.29-8.607-3.012-1.815-6.77-2.652-9.996-2.657-.094 0-.192.003-.285.005-7.044.102-11.198 4.11-11.22 8.067a5.244 5.244 0 0 0 .783 2.754c-1.855-1.742-5-4.1-9.992-5.961a51.646 51.646 0 0 0-12.81-2.692c1.472-3.258 4.032-6.263 7.556-8.512m125.608 53.66c-5.09-.23-9.6-1.217-13.037-2.33-4.86-1.653-8.013-3.831-9.928-5.49.433-.39.711-.95.711-1.58a2.128 2.128 0 1 0-2.128 2.13c.085 0 .164-.016.247-.025a4.11 4.11 0 0 1 .643 2.219c.02 3.101-3.454 6.826-10.11 6.938h-.265c-3.03.004-6.63-.81-9.413-2.495-2.79-1.697-4.735-4.174-4.741-7.639 0-.738.09-1.526.285-2.362 1.756-7.93 13.247-11.997 23.975-11.972 1.093-.003 2.175.04 3.235.124 15.278 1.215 21.617 8.921 21.636 16.796.001 1.903-.383 3.827-1.11 5.686m.903-43.474c.121.787.205 1.584.205 2.385.003 3.098-.92 6.183-2.789 8.56-4.661 5.913-10.293 8.189-16.475 8.199-7.715.01-16.283-3.642-24.43-8.492 14.56-6.487 29.234-10.938 43.49-10.652m30.757 12.037c-5.754-9.312-17.426-13.34-28.763-14.414-.465-.027-.93-.041-1.396-.059-.978-3.225-2.937-6.098-5.889-7.815-1.666-.963-3.802-1.526-5.87-1.53-2.466-.001-4.919.819-6.16 2.947l.105.06a2.1 2.1 0 0 0-.243.968 2.128 2.128 0 1 0 4.257 0 2.12 2.12 0 0 0-1.503-2.026c.984-.549 2.217-.816 3.543-.816 1.86-.004 3.837.523 5.304 1.377 2.552 1.474 4.328 3.957 5.27 6.798-14.71-.292-29.507 4.116-44.08 10.548a2.096 2.096 0 0 0-.942-.23c-.567 0-1.078.225-1.46.585a144.58 144.58 0 0 1-2.457-1.616C101.558 11.82 81.843.016 63.143 0c-7.256-.002-14.36 1.795-21.087 6.05-3.833 2.447-6.615 5.766-8.151 9.387-7.717-.418-16.753.927-25.732 6.312-3.618 2.447-7.01 6.28-7.907 11.257-.739 4.877.02 10.149 2.8 14.733 5.756 9.312 17.427 13.34 28.764 14.416.475.026.948.04 1.422.057.976 3.238 2.938 6.124 5.9 7.851 1.67.963 3.804 1.523 5.873 1.526 2.462.003 4.915-.818 6.156-2.94l-.111-.065c.15-.293.245-.62.245-.973a2.129 2.129 0 0 0-4.258 0c0 .962.64 1.765 1.516 2.029-.986.55-2.22.82-3.548.82-1.862.003-3.838-.522-5.303-1.376-2.566-1.484-4.344-3.983-5.285-6.837 14.66.271 29.404-4.107 43.93-10.501a2.092 2.092 0 0 0 2.52-.393c.84.542 1.676 1.089 2.502 1.647 18.09 12.177 37.806 23.984 56.505 24h.014c7.252 0 14.35-1.797 21.075-6.043 3.842-2.46 6.627-5.791 8.161-9.424 7.705.41 16.722-.942 25.683-6.315 3.615-2.446 7.008-6.28 7.906-11.256.741-4.878-.02-10.15-2.8-14.735" fill="#FFF" mask="url(#b)"/></g></svg>