<svg xmlns="http://www.w3.org/2000/svg" viewBox="0 0 85.9 14.4"><path d="M4.2 6c.3-.1.5-.3.5-.5V3.7H2.5v1.8c0 .2.2.4.4.4H3V6H.9v-.1H1c.2 0 .4-.2.4-.4V1.6c0-.2-.2-.4-.4-.4H.9v-.1H3v.1h-.1c-.2 0-.4.2-.4.4v1.8h2.3V1.6c0-.2-.2-.4-.4-.4h-.2v-.1h2.1v.1h-.1c-.2 0-.4.2-.4.4v3.9c0 .2.2.4.4.4h.1V6H4.2zm6.3 0H6.9v-.1H7c.2 0 .4-.2.4-.4V1.6c0-.2-.2-.4-.4-.4h-.1v-.1h2.7c.3 0 .7-.1.8-.1v1.2h-.1v-.1c0-.4-.3-.7-.7-.7H8.5v2h.9c.3 0 .6-.3.6-.6h.1v1.6H10v-.1c0-.3-.2-.6-.6-.6h-.9v2h.9c.7 0 1.2-.4 1.4-1.1h.1L10.5 6zm3.2-4.9c.8 0 1.8.3 1.8 1.3 0 .8-.6 1.4-1.3 1.3.6.3 1 .9 1.6 1.7.8 1 1.6 1.7 2.8 1.7v.1c-.9.4-2.6.5-3.8-1.3-.4-.5-1-1.5-1.3-1.9-.1-.2-.3-.4-.4-.4v-.1h.2c.3 0 .9-.2 1-.8v-.3c0-.6-.4-1-1-1h-.5v4.1c0 .2.2.4.5.4h.1V6h-2.1v-.1h.1c.2 0 .4-.2.4-.4V1.6c0-.2-.2-.4-.4-.4h-.1v-.1h2.4z" fill="#4A0E2A"/><path d="M18.6 6h-2.1v-.1h.1c.2 0 .4-.2.4-.4V1.6c0-.2-.2-.4-.4-.4h-.1v-.1h2.1v.1h-.1c-.2 0-.4.2-.4.4v3.9c-.1.2.1.4.5.5zm4.8-3.8c-.1-.5-.3-.8-.8-.8h-.9v4.1c0 .2.2.4.4.4h.1V6h-2.1v-.1h.1c.2 0 .4-.2.4-.4V1.4h-.9c-.4 0-.7.3-.7.7v.1h-.1V1c.1.1.5.1.8.1h2.8c.3 0 .7-.1.8-.1v1.2zm4.1 3.3c.2.3.4.4.6.4h.1V6H26v-.1c.2 0 .4-.2.3-.4l-.3-.9h-1.6l-.4.9c-.1.3.1.4.3.4h.1V6h-1.5v-.1h.1c.2 0 .4-.1.6-.4L25 1.9c0-.1.3-.7.3-.9h.1l2.1 4.5zm-1.7-1.2l-.7-1.7-.7 1.7h1.4zm7.5-.6c-.2 0-.3.1-.3.3v1.2c-.3.4-1.2.9-2.3.9-1.6 0-2.6-1-2.6-2.6C28 2 29 1 30.7 1c.8 0 1.5.2 1.9.4v1.2h-.1c-.3-1-.9-1.3-1.7-1.3-1.1 0-1.8.9-1.8 2.3s.6 2.2 1.6 2.2c.5 0 1-.2 1.2-.7V4c0-.2-.1-.3-.4-.3h-.1 2v.1zm4 2.3h-3.6v-.1h.1c.2 0 .4-.2.4-.4V1.6c0-.2-.2-.4-.4-.4h-.1v-.1h2.7c.3 0 .7-.1.8-.1v1.2h-.1v-.1c0-.4-.3-.7-.7-.7h-1.2v2h.9c.3 0 .6-.3.6-.6h.1v1.6h-.1v-.1c0-.3-.2-.6-.6-.6h-.9v2h.9c.7 0 1.2-.4 1.4-1.1h.1L37.3 6zm4.9-4.9c1.2 0 1.7.6 1.7 1.3 0 1.2-1.3 1.9-2.2 1.2v-.1s.8.1 1.1-.8v-.4c0-.6-.3-1-.9-1h-.5v4.1c0 .2.2.4.4.4h.2V6h-2.1v-.1h.1c.2 0 .4-.2.4-.4V1.6c0-.2-.2-.4-.4-.4h-.1v-.1h2.3zm4.6 0c.8 0 1.7.3 1.7 1.3 0 .6-.4 1.3-1.1 1.3.3.1.6.4.7.6 0 0 .4.7.7 1 .3.4.5.5.9.5V6H49c-.8 0-1.3-.2-1.6-.7-.2-.3-.5-1-.6-1.2-.1-.3-.3-.4-.5-.5v-.1h.2c.4 0 .8-.2.9-.8v-.3c0-.7-.4-1-.8-1h-.5v4.1c0 .2.2.4.5.4h.1V6h-2.1v-.1h.1c.2 0 .4-.2.4-.4V1.6c0-.2-.2-.4-.4-.4h-.1v-.1h2.2zM55 3.5C55 5.1 53.9 6 52.2 6c-1.7 0-2.8-1-2.8-2.5S50.6 1 52.2 1C53.9 1 55 2 55 3.5zm-1.2 0c0-1.4-.6-2.3-1.6-2.3s-1.6.9-1.6 2.3.6 2.3 1.6 2.3 1.6-.9 1.6-2.3zm4-2.4c1.2 0 1.7.6 1.7 1.3 0 1.2-1.3 1.9-2.2 1.2v-.1s.8.1 1.1-.8v-.4c0-.6-.3-1-.9-1H57v4.1c0 .2.2.4.4.4h.1v.1h-2.1v-.1h.1c.2 0 .4-.2.4-.4V1.6c0-.2-.2-.4-.4-.4h-.1v-.1h2.4zM63.6 6H60v-.1h.1c.2 0 .4-.2.4-.4V1.6c0-.2-.2-.4-.4-.4H60v-.1h2.7c.3 0 .7-.1.8-.1v1.2h-.1v-.1c0-.4-.3-.7-.7-.7h-1.2v2h.9c.3 0 .6-.3.6-.6h.1v1.6H63v-.1c0-.3-.2-.6-.6-.6h-.9v2h.9c.7 0 1.2-.4 1.4-1.1h.1L63.6 6zm3.2-4.9c.8 0 1.7.3 1.7 1.3 0 .6-.4 1.3-1.1 1.3.3.1.6.4.7.6 0 0 .4.7.7 1 .3.4.5.5.9.5V6H69c-.8 0-1.3-.2-1.6-.7-.2-.3-.5-1-.6-1.2-.1-.3-.3-.4-.5-.5v-.1h.2c.4 0 .8-.2.9-.8v-.3c0-.7-.4-1-.8-1h-.5v4.1c0 .2.2.4.5.4h.1V6h-2.1v-.1h.1c.2 0 .4-.2.4-.4V1.6c0-.2-.2-.4-.4-.4h-.1v-.1h2.2zm6.8 1.1c-.1-.5-.3-.8-.8-.8h-.9v4.1c0 .2.2.4.4.4h.1V6h-2.1v-.1h.1c.2 0 .4-.2.4-.4V1.4h-.9c-.4 0-.7.3-.7.7v.1h-.1V1c.2 0 .6.1.9.1h2.8c.3 0 .7-.1.8-.1v1.2zM76.1 6H74v-.1h.1c.2 0 .4-.2.4-.4V1.6c0-.2-.2-.4-.4-.4H74v-.1h2.1v.1H76c-.2 0-.4.2-.4.4v3.9c0 .2.2.4.5.5zm4.2 0h-3.6v-.1h.1c.2 0 .4-.2.4-.4V1.6c0-.2-.2-.4-.4-.4h-.1v-.1h2.7c.3 0 .7-.1.8-.1v1.2h-.1v-.1c0-.4-.3-.7-.7-.7h-1.2v2h.9c.3 0 .6-.3.6-.6h.1v1.6h-.1v-.1c0-.3-.2-.6-.6-.6h-.9v2h.9c.7 0 1.2-.4 1.4-1.1h.1L80.3 6zm3.8-2.5c1.7 1.1.9 3.2-1.2 3.2-1.7 0-2.4-1.6-1.5-2.7h.1c-.7 1.1 0 2.4 1.3 2.4s1.7-1.3.6-2.1l-1.2-.8c-.5-.3-.7-.8-.7-1.3.1-.7.6-1.2 1.5-1.2.2 0 .6 0 1 .1h.4l-.1 1h-.1c0-.5-.4-.8-1-.8-.5 0-.9.3-.9.7 0 .3.2.5.5.6l1.3.9z" fill="#4A0E2A"/><path d="M7.9 8.4c.9 0 1.4.5 1.4 1.4 0 1.1-1.2 1.6-2 1.2v-.1s1.2.2 1.5-.8v-.4c0-.6-.3-1.1-.9-1.1h-.8v4.2c0 .2.2.4.4.4h.1v.1H6.1v-.1h.1c.2 0 .4-.2.4-.4V8.9c0-.2-.2-.4-.4-.4h-.1v-.1h1.8zm3.9.7c.9 0 1.4.4 1.4 1.1 0 .6-.5 1.1-1.1 1.2.2.1.4.3.5.5l.6.8c.3.3.5.5.9.5v.1H14c-.8 0-1.1-.4-1.3-.6-.1-.1-.6-.9-.7-1-.2-.2-.4-.5-.7-.5v-.1h.4c.4 0 .8 0 1-.6 0-.1.1-.2 0-.4 0-.5-.4-.8-.9-.9H11v3.5c0 .2.2.4.4.4h.1v.1h-1.4v-.1h.1c.2 0 .4-.2.4-.4V9.6c0-.2-.2-.4-.4-.4h-.1v-.1h1.7zm7.1 2.1c0 1.3-1.1 2.2-2.4 2.2-1.3 0-2.4-.9-2.4-2.2S15.2 9 16.5 9c1.3 0 2.4.9 2.4 2.2zm-.5 0c0-1.2-.8-2-1.8-2s-1.8.8-1.8 2 .8 2 1.8 2 1.8-.8 1.8-2zm2.8-2.1c1 0 1.6.5 1.6 1.2 0 1.1-1.1 1.5-2 1.1v-.1s1.1.3 1.5-.7v-.4c0-.6-.4-.9-1.1-.9h-.7v3.5c0 .2.2.4.4.4h.1v.1h-1.5v-.1h.1c.2 0 .4-.2.4-.4V9.6c0-.2-.2-.4-.4-.4h-.1v-.1h1.7zm5 4.2h-2.8v-.1h.1c.2 0 .4-.2.4-.4V9.6c0-.2-.2-.4-.4-.4h-.1v-.1h2c.3 0 .7-.1.8-.1v.8h-.1v-.1c0-.2-.1-.4-.4-.4h-1.5v1.8h1.2c.2 0 .3-.1.3-.3v-.1h.1v1h-.1v-.1c0-.2-.1-.3-.3-.3h-1.2v1.8h1.1c.7 0 .9-.3 1.1-.8h.1l-.3 1zm2.7-4.2c.9 0 1.4.4 1.4 1.1 0 .6-.5 1.1-1.1 1.2.2.1.4.3.5.5l.6.8c.3.3.5.5.9.5v.1H31c-.8 0-1.1-.4-1.3-.6-.1-.1-.6-.9-.7-1-.2-.2-.4-.5-.7-.5v-.1h.4c.4 0 .8 0 1-.6 0-.1.1-.2 0-.4 0-.5-.4-.8-.9-.9H28v3.5c0 .2.2.4.4.4h.1v.1h-1.4v-.1h.1c.2 0 .4-.2.4-.4V9.6c0-.2-.2-.4-.4-.4h-.1v-.1h1.8zm5.3 0c.3 0 .7-.1.8-.1v.8h-.1v-.1c0-.2-.1-.4-.4-.4h-1.3v3.6c0 .2.2.4.4.4h.1v.1h-1.4v-.1h.1c.2 0 .4-.2.4-.4V9.3h-1.3c-.2 0-.4.2-.4.4v.1H31V9c.1 0 .5.1.8.1h2.4zm5.4 0c-.4.1-.6.2-.7.4l-1.3 2v1.3c0 .2.2.4.4.4v.1h-1.4v-.1h.1c.2 0 .4-.2.4-.4v-1.3l-1.3-2c-.1-.2-.4-.4-.6-.4h-.1 1.6v.1h-.1c-.2 0-.3.2-.2.3l1 1.8 1.1-1.8c.1-.2 0-.3-.2-.3h-.1v-.1h1.4zm4.5-.7c1.5 0 2.5 1 2.5 2.5s-1 2.4-2.5 2.4h-2.4v-.1h.1c.2 0 .4-.2.4-.4V8.9c0-.2-.2-.4-.4-.4h-.1v-.1h2.4zm-1.3 4.7h1.4c1.2 0 2-.9 2-2.2 0-1.3-.8-2.2-2-2.2h-1.4v4.4zm7.3.2h-2.8v-.1h.1c.2 0 .4-.2.4-.4V9.6c0-.2-.2-.4-.4-.4h-.1v-.1h2c.3 0 .7-.1.8-.1v.8H50v-.1c0-.2-.1-.4-.4-.4h-1.5v1.8h1.2c.2 0 .3-.1.3-.3v-.1h.1v1h-.1v-.1c0-.2-.1-.3-.3-.3h-1.2v1.8h1.1c.7 0 .9-.3 1.1-.8h.1l-.3 1zm5.3-4.2c-.2.1-.5.2-.6.5l-1.4 3.1s-.3.5-.3.7H53l-1.7-3.8c-.1-.3-.4-.4-.5-.4h-.1v-.1h1.4v.1H52c-.2 0-.3.2-.2.4l1.3 3.1 1.3-3c.1-.3-.1-.4-.2-.4H54v-.2h1.4zm3.1 4.2h-2.8v-.1h.1c.2 0 .4-.2.4-.4V9.6c0-.2-.2-.4-.4-.4h-.1v-.1h2c.3 0 .7-.1.8-.1v.8h-.1v-.1c0-.2-.1-.4-.4-.4h-1.5v1.8h1.2c.2 0 .3-.1.3-.3v-.1h.1v1H58v-.1c0-.2-.1-.3-.3-.3h-1.2v1.8h1.1c.7 0 .9-.3 1.1-.8h.1l-.3 1zm4.2-1l-.4 1h-2.8v-.1h.1c.2 0 .4-.2.4-.4V9.6c0-.2-.2-.4-.4-.4h-.1v-.1H61v.1h-.1c-.2 0-.4.2-.4.4v3.5h1.1c.6 0 .8-.3 1.1-.8zm5.2-1.1c0 1.3-1.1 2.2-2.4 2.2-1.3 0-2.4-.9-2.4-2.2S64.2 9 65.5 9c1.3 0 2.4.9 2.4 2.2zm-.5 0c0-1.2-.8-2-1.8-2s-1.8.8-1.8 2 .8 2 1.8 2c.9 0 1.8-.8 1.8-2zm2.7-2.1c1 0 1.6.5 1.6 1.2 0 1.1-1.1 1.5-2 1.1v-.1s1.1.3 1.5-.7v-.4c0-.6-.4-.9-1.1-.9h-.7v3.5c0 .2.2.4.4.4h.2v.1h-1.5v-.1h.1c.2 0 .4-.2.4-.4V9.6c0-.2-.2-.4-.4-.4h-.1v-.1h1.6zm5.1 4.2h-2.8v-.1h.1c.2 0 .4-.2.4-.4V9.6c0-.2-.2-.4-.4-.4h-.1v-.1h2c.3 0 .7-.1.8-.1v.8h-.1v-.1c0-.2-.1-.4-.4-.4h-1.5v1.8h1.2c.2 0 .3-.1.3-.3v-.1h.1v1h-.1v-.1c0-.2-.1-.3-.3-.3h-1.2v1.8h1.1c.7 0 .9-.3 1.1-.8h.1l-.3 1zm2.7-4.2c.9 0 1.4.4 1.4 1.1 0 .6-.5 1.1-1.1 1.2.2.1.4.3.5.5l.6.8c.3.3.5.5.9.5v.1H80c-.8 0-1.1-.4-1.3-.6-.1-.1-.6-.9-.7-1-.2-.2-.4-.5-.7-.5v-.1h.4c.4 0 .8 0 1-.6 0-.1.1-.2 0-.4 0-.5-.4-.8-.9-.9H77v3.5c0 .2.2.4.4.4h.1v.1h-1.4v-.1h.1c.2 0 .4-.2.4-.4V9.6c0-.2-.2-.4-.4-.4h-.1v-.1h1.8z" fill="#AE9F70"/></svg>