<svg xmlns="http://www.w3.org/2000/svg" viewBox="0 370.9 595.3 100.1"><path d="M29.1 412.6c2.1-.7 3.5-2.1 3.5-3.5v-12.5H17.3v12.5c0 1.4 1.4 2.8 2.8 2.8h.7v.7H6.2v-.7h.7c1.4 0 2.8-1.4 2.8-2.8v-27c0-1.4-1.4-2.8-2.8-2.8h-.7v-.7h14.6v.7h-.7c-1.4 0-2.8 1.4-2.8 2.8v12.5h15.9v-12.5c0-1.4-1.4-2.8-2.8-2.8H29v-.7h14.6v.7H43c-1.4 0-2.8 1.4-2.8 2.8v27c0 1.4 1.4 2.8 2.8 2.8h.7v.7H29.1zm43.7 0h-25v-.7h.7c1.4 0 2.8-1.4 2.8-2.8v-27c0-1.4-1.4-2.8-2.8-2.8h-.7v-.7h18.7c2.1 0 4.9-.7 5.5-.7v8.3h-.7v-.7c0-2.8-2.1-4.9-4.9-4.9h-7.6v13.9H65c2.1 0 4.2-2.1 4.2-4.2h.8v11.1h-.7v-.7c0-2.1-1.4-4.2-4.2-4.2h-6.2v13.9h6.2c4.9 0 8.3-2.8 9.7-7.6h.7l-2.7 9.8zm22.1-33.9c5.5 0 12.5 2.1 12.5 9 0 5.5-4.2 9.7-9 9 4.2 2.1 6.9 6.2 11.1 11.8 5.5 6.9 11.1 11.8 19.4 11.8v.7c-6.2 2.8-18 3.5-26.3-9-2.8-3.5-6.9-10.4-9-13.2-.7-1.4-1.4-2.8-2.1-2.8v-.7h1.4c2.1 0 6.2-1.4 6.9-5.5v-2.1c0-4.2-2.8-6.9-6.9-6.9h-3.5v28.4c0 1.4 1.4 2.8 3.5 2.8h.7v.7H79v-.7h.7c1.4 0 2.8-1.4 2.8-2.8v-27c0-1.4-1.4-2.8-2.8-2.8H79v-.7h15.9z" fill="#FFF"/><path d="M128.9 412.6h-14.6v-.7h.7c1.4 0 2.8-1.4 2.8-2.8v-27c0-1.4-1.4-2.8-2.8-2.8h-.7v-.7h14.6v.7h-.7c-2.1 0-3.5 1.4-3.5 2.8v27c0 1.5 1.4 2.8 4.2 3.5zm33.3-26.3c-.7-3.5-2.1-5.5-5.5-5.5h-6.2v28.4c0 1.4 1.4 2.8 2.8 2.8h.7v.7h-14.6v-.7h.7c1.4 0 2.8-1.4 2.8-2.8v-28.4h-6.2c-2.8 0-4.9 2.1-4.9 4.9v.7h-.8V378c.7.7 3.5.7 5.5.7h19.4c2.1 0 4.9-.7 5.5-.7v8.3h.8zm28.4 22.9c1.4 2.1 2.8 2.8 4.2 2.8h.7v.7h-15.2v-.7c1.4 0 2.8-1.4 2.1-2.8l-2.8-6.2h-11.1l-2.8 6.2c-.7 2.1.7 2.8 2.1 2.8h.7v.7H158v-.7h.7c1.4 0 2.8-.7 4.2-2.8l10.4-24.9c0-.7 2.1-4.9 2.1-6.2h.7l14.5 31.1zm-11.8-8.4l-4.9-11.8-4.9 11.8h9.8zm52-4.1c-1.4 0-2.8.7-2.1 2.1v8.3c-2.1 2.8-8.3 6.2-15.9 6.2-11.1 0-18-6.9-18-18s6.9-17.3 18.7-17.3c5.5 0 10.4 1.4 13.2 2.8v8.3h-.7c-2.1-6.9-6.2-9-11.8-9-7.6 0-12.5 6.2-12.5 15.9s4.2 15.2 11.1 15.2c3.5 0 6.9-1.4 8.3-4.9v-7.6c0-1.4-.7-2.1-2.8-2.1h-.7v-.6h13.9v.7h-.7zm27.7 15.9h-24.9v-.7h.7c1.4 0 2.8-1.4 2.8-2.8v-27c0-1.4-1.4-2.8-2.8-2.8h-.7v-.7h18.7c2.1 0 4.9-.7 5.5-.7v8.3h-.7v-.7c0-2.8-2.1-4.9-4.9-4.9h-8.3v13.9h6.2c2.1 0 4.2-2.1 4.2-4.2h.7v11.1h-.7v-.7c0-2.1-1.4-4.2-4.2-4.2h-6.2v13.9h6.2c4.9 0 8.3-2.8 9.7-7.6h.7l-2 9.8zm33.9-33.9c8.3 0 11.8 4.2 11.8 9 0 8.3-9 13.2-15.2 8.3v-.7s5.5.7 7.6-5.5V387c0-4.2-2.1-6.9-6.2-6.9h-3.5v28.4c0 1.4 1.4 2.8 2.8 2.8h1.4v.7h-14.6v-.7h.7c1.4 0 2.8-1.4 2.8-2.8v-26.3c0-1.4-1.4-2.8-2.8-2.8h-.7v-.7h15.9zm31.9 0c5.5 0 11.8 2.1 11.8 9 0 4.2-2.8 9-7.6 9 2.1.7 4.2 2.8 4.9 4.2 0 0 2.8 4.9 4.9 6.9 2.1 2.8 3.5 3.5 6.2 3.5v.7h-4.9c-5.5 0-9-1.4-11.1-4.9-1.4-2.1-3.5-6.9-4.2-8.3-1.4-1.4-2.8-2.8-3.5-2.8v-.7h1.4c2.8 0 5.5-1.4 6.2-5.5v-2.1c0-4.9-2.8-6.9-5.5-6.9h-3.5v28.4c0 1.4 1.4 2.8 3.5 2.8h.7v.7H309v-.7h.7c1.4 0 2.8-1.4 2.8-2.8v-27c0-1.4-1.4-2.8-2.8-2.8h-.7v-.7h15.3zm56.8 16.6c0 11.1-7.6 17.3-19.4 17.3-11.8 0-19.4-6.9-19.4-17.3s7.6-17.3 19.4-17.3c11.8 0 19.4 6.9 19.4 17.3zm-8.3 0c0-9.7-4.2-15.9-11.1-15.9-6.9 0-11.1 6.2-11.1 15.9s4.2 15.9 11.1 15.9c7 0 11.1-6.2 11.1-15.9zm27.7-16.6c8.3 0 11.8 4.2 11.8 9 0 8.3-9 13.2-15.2 8.3v-.7s5.5.7 7.6-5.5V387c0-4.2-2.1-6.9-6.2-6.9H395v28.4c0 1.4 1.4 2.8 2.8 2.8h.7v.7h-14.6v-.7h.7c1.4 0 2.8-1.4 2.8-2.8v-26.3c0-1.4-1.4-2.8-2.8-2.8h-.7v-.7h16.6zm40.2 33.9h-24.9v-.7h.7c1.4 0 2.8-1.4 2.8-2.8v-27c0-1.4-1.4-2.8-2.8-2.8h-.7v-.7h18.7c2.1 0 4.9-.7 5.5-.7v8.3h-.7v-.7c0-2.8-2.1-4.9-4.9-4.9h-8.3v13.9h6.2c2.1 0 4.2-2.1 4.2-4.2h.7v11.1h-.7v-.7c0-2.1-1.4-4.2-4.2-4.2h-6.2v13.9h6.2c4.9 0 8.3-2.8 9.7-7.6h.7l-2 9.8zm22.2-33.9c5.5 0 11.8 2.1 11.8 9 0 4.2-2.8 9-7.6 9 2.1.7 4.2 2.8 4.9 4.2 0 0 2.8 4.9 4.9 6.9 2.1 2.8 3.5 3.5 6.2 3.5v.7h-4.9c-5.5 0-9-1.4-11.1-4.9-1.4-2.1-3.5-6.9-4.2-8.3-1.4-1.4-2.8-2.8-4.2-2.8v-.7h1.4c2.8 0 5.5-1.4 6.2-5.5v-2.1c0-4.9-2.8-6.9-5.5-6.9h-3.5v28.4c0 1.4 1.4 2.8 3.5 2.8h.7v.7H447v-.7h.7c1.4 0 2.8-1.4 2.8-2.8v-27c0-1.4-1.4-2.8-2.8-2.8h-.7v-.7h15.9zm47.1 7.6c-.7-3.5-2.1-5.5-5.5-5.5h-6.2v28.4c0 1.4 1.4 2.8 2.8 2.8h.7v.7h-14.6v-.7h.7c1.4 0 2.8-1.4 2.8-2.8v-28.4h-6.2c-2.8 0-4.9 2.1-4.9 4.9v.7h-.7V378c.7.7 3.5.7 5.5.7h19.4c2.1 0 4.9-.7 5.5-.7v8.3h.7zm17.4 26.3h-14.6v-.7h.7c1.4 0 2.8-1.4 2.8-2.8v-27c0-1.4-1.4-2.8-2.8-2.8h-.7v-.7h14.6v.7h-.7c-1.4 0-2.8 1.4-2.8 2.8v27c0 1.5 1.4 2.8 3.5 3.5zm29.1 0h-24.9v-.7h.7c1.4 0 2.8-1.4 2.8-2.8v-27c0-1.4-1.4-2.8-2.8-2.8h-.7v-.7h18.7c2.1 0 4.9-.7 5.5-.7v8.3h-.7v-.7c0-2.8-2.1-4.9-4.9-4.9h-8.3v13.9h6.2c2.1 0 4.2-2.1 4.2-4.2h.7v11.1h-.7v-.7c0-2.1-1.4-4.2-4.2-4.2h-6.2v13.9h6.2c4.9 0 8.3-2.8 9.7-7.6h.7l-2 9.8zm26.3-17.3c11.8 7.6 6.2 22.2-8.3 22.2-11.8 0-16.6-11.1-10.4-18.7h.7c-4.9 7.6 0 16.6 9 16.6s11.8-9 4.2-14.6l-8.3-5.5c-3.5-2.1-4.9-5.5-4.9-9 .7-4.9 4.2-8.3 10.4-8.3 1.4 0 4.2 0 6.9.7h2.8l-.7 6.9h-.7c0-3.5-2.8-5.5-6.9-5.5-3.5 0-6.2 2.1-6.2 4.9 0 2.1 1.4 3.5 3.5 4.2l8.9 6.1zm-528.1 34c6.2 0 9.7 3.5 9.7 9.7 0 7.6-8.3 11.1-13.9 8.3v-.7s8.3 1.4 10.4-5.5v-2.8c.7-4.2-2.1-7.6-6.2-7.6h-5.5v29.1c0 1.4 1.4 2.8 2.8 2.8h.7v.7H42.3v-.7h.7c1.4 0 2.8-1.4 2.8-2.8v-27c0-1.4-1.4-2.8-2.8-2.8h-.7v-.7h12.4zm27.1 4.8c6.2 0 9.7 2.8 9.7 7.6 0 4.2-3.5 7.6-7.6 8.3 1.4.7 2.8 2.1 3.5 3.5 0 0 2.1 2.8 4.2 5.5 2.1 2.1 3.5 3.5 6.2 3.5v.7H97c-5.5 0-7.6-2.8-9-4.2-.7-.7-4.2-6.2-4.9-6.9-1.4-1.4-2.8-3.5-4.9-3.5v-.6H81c2.8 0 5.5 0 6.9-4.2 0-.7.7-1.4 0-2.8 0-3.5-2.8-5.5-6.2-6.2h-5.5v24.3c0 1.4 1.4 2.8 2.8 2.8h.7v.7H70v-.7h.7c1.4 0 2.8-1.4 2.8-2.8v-22.2c0-1.4-1.4-2.8-2.8-2.8H70v-.7h11.8v.7zm49.2 14.6c0 9-7.6 15.2-16.6 15.2s-16.6-6.2-16.6-15.2 7.6-15.2 16.6-15.2 16.6 6.2 16.6 15.2zm-3.5 0c0-8.3-5.5-13.9-12.5-13.9-6.9 0-12.5 5.5-12.5 13.9 0 8.3 5.5 13.9 12.5 13.9 7-.1 12.5-5.6 12.5-13.9zm19.4-14.6c6.9 0 11.1 3.5 11.1 8.3 0 7.6-7.6 10.4-13.9 7.6v-.7s7.6 2.1 10.4-4.9v-2.8c0-4.2-2.8-6.2-7.6-6.2H142v24.3c0 1.4 1.4 2.8 2.8 2.8h.7v.7h-10.4v-.7h.7c1.4 0 2.8-1.4 2.8-2.8v-22.2c0-1.4-1.4-2.8-2.8-2.8h-.7v-.7h11.8zm34.7 29.1h-19.4v-.7h.7c1.4 0 2.8-1.4 2.8-2.8v-22.2c0-1.4-1.4-2.8-2.8-2.8h-.7v-.7H176c2.1 0 4.9-.7 5.5-.7v5.5h-.7v-.7c0-1.4-.7-2.8-2.8-2.8h-10.4V448h8.3c1.4 0 2.1-.7 2.1-2.1v-.7h.7v6.9h-.7v-.7c0-1.4-.7-2.1-2.1-2.1h-8.3v12.5h7.6c4.9 0 6.2-2.1 7.6-5.5h.7l-1.9 6.9zm18.7-29.1c6.2 0 9.7 2.8 9.7 7.6 0 4.2-3.5 7.6-7.6 8.3 1.4.7 2.8 2.1 3.5 3.5 0 0 2.1 2.8 4.2 5.5 2.1 2.1 3.5 3.5 6.2 3.5v.7h-1.4c-5.5 0-7.6-2.8-9-4.2-.7-.7-4.2-6.2-4.9-6.9-1.4-1.4-2.8-3.5-4.9-3.5v-.6h2.8c2.8 0 5.5 0 6.9-4.2 0-.7.7-1.4 0-2.8 0-3.5-2.8-5.5-6.2-6.2h-5.5v24.3c0 1.4 1.4 2.8 2.8 2.8h.7v.7h-9.7v-.7h.7c1.4 0 2.8-1.4 2.8-2.8v-22.2c0-1.4-1.4-2.8-2.8-2.8h-.7v-.7h12.5v.7zm36.7 0c2.1 0 4.9-.7 5.5-.7v5.5h-.7v-.7c0-1.4-.7-2.8-2.8-2.8h-9v24.9c0 1.4 1.4 2.8 2.8 2.8h.7v.7h-9.7v-.7h.7c1.4 0 2.8-1.4 2.8-2.8v-24.9h-9c-1.4 0-2.8 1.4-2.8 2.8v.7h-.7v-5.5c.7 0 3.5.7 5.5.7H237zm37.4 0c-2.8.7-4.2 1.4-4.9 2.8l-9 13.9v9c0 1.4 1.4 2.8 2.8 2.8v.7h-9.7v-.7h.7c1.4 0 2.8-1.4 2.8-2.8v-8.3l-9-13.9c-.7-1.4-2.8-2.8-4.2-2.8h-.7v-.7h11.1v.7h-.7c-1.4 0-2.1 1.4-1.4 2.1l6.9 12.5 7.6-12.5c.7-1.4 0-2.1-1.4-2.1h-.7v-.7h9.8zm31.2-4.8c10.4 0 17.3 6.9 17.3 17.3s-6.9 16.6-17.3 16.6H289v-.7h.7c1.4 0 2.8-1.4 2.8-2.8v-27c0-1.4-1.4-2.8-2.8-2.8h-.7v-.7h16.6zm-9 32.5h9.7c8.3 0 13.9-6.2 13.9-15.2s-5.5-15.2-13.9-15.2h-9.7v30.4zm50.6 1.4h-19.4v-.7h.7c1.4 0 2.8-1.4 2.8-2.8v-22.2c0-1.4-1.4-2.8-2.8-2.8h-.7v-.7h13.9c2.1 0 4.9-.7 5.5-.7v5.5h-.7v-.7c0-1.4-.7-2.8-2.8-2.8h-10.4V448h8.3c1.4 0 2.1-.7 2.1-2.1v-.7h.7v6.9h-.7v-.7c0-1.4-.7-2.1-2.1-2.1h-8.3v12.5h7.6c4.9 0 6.2-2.1 7.6-5.5h.7l-2 6.9zm36.7-29.1c-1.4.7-3.5 1.4-4.2 3.5l-9.7 21.5s-2.1 3.5-2.1 4.9h-.7l-12.5-26.3c-.7-2.1-2.8-2.8-3.5-2.8h-.7v-.7h9.7v.7c-1.4 0-2.1 1.4-1.4 2.8l9 21.5 9-20.8c.7-2.1-.7-2.8-1.4-2.8H374v-1.4h9.9zm21.5 29.1H386v-.7h.7c1.4 0 2.8-1.4 2.8-2.8v-22.2c0-1.4-1.4-2.8-2.8-2.8h-.7v-.7h13.9c2.1 0 4.9-.7 5.5-.7v5.5h-.7v-.7c0-1.4-.7-2.8-2.8-2.8h-10.4V448h8.3c1.4 0 2.1-.7 2.1-2.1v-.7h.7v6.9h-.7v-.7c0-1.4-.7-2.1-2.1-2.1h-8.3v12.5h7.6c4.9 0 6.2-2.1 7.6-5.5h.7l-2 6.9zm29.1-6.9l-2.8 6.9h-19.4v-.7h.7c1.4 0 2.8-1.4 2.8-2.8v-22.2c0-1.4-1.4-2.8-2.8-2.8h-.7v-.7h10.4v.7h-.7c-1.4 0-2.8 1.4-2.8 2.8v24.3h7.6c4.2 0 5.6-2 7.7-5.5zm36-7.6c0 9-7.6 15.2-16.6 15.2-9 0-16.6-6.2-16.6-15.2s7.6-15.2 16.6-15.2c9-.1 16.6 6.2 16.6 15.2zm-3.4 0c0-8.3-5.5-13.9-12.5-13.9s-12.5 5.5-12.5 13.9c0 8.3 5.5 13.9 12.5 13.9 6.2-.1 12.5-5.6 12.5-13.9zm18.7-14.6c6.9 0 11.1 3.5 11.1 8.3 0 7.6-7.6 10.4-13.9 7.6v-.7s7.6 2.1 10.4-4.9v-2.8c0-4.2-2.8-6.2-7.6-6.2h-4.9v24.3c0 1.4 1.4 2.8 2.8 2.8h1.4v.7h-10.4v-.7h.7c1.4 0 2.8-1.4 2.8-2.8v-22.2c0-1.4-1.4-2.8-2.8-2.8h-.7v-.7h11.1zm35.3 29.1h-19.4v-.7h.7c1.4 0 2.8-1.4 2.8-2.8v-22.2c0-1.4-1.4-2.8-2.8-2.8h-.7v-.7h13.9c2.1 0 4.9-.7 5.5-.7v5.5h-.7v-.7c0-1.4-.7-2.8-2.8-2.8h-10.4V448h8.3c1.4 0 2.1-.7 2.1-2.1v-.7h.7v6.9h-.7v-.7c0-1.4-.7-2.1-2.1-2.1h-8.3v12.5h7.6c4.9 0 6.2-2.1 7.6-5.5h.7l-2 6.9zm18.7-29.1c6.2 0 9.7 2.8 9.7 7.6 0 4.2-3.5 7.6-7.6 8.3 1.4.7 2.8 2.1 3.5 3.5 0 0 2.1 2.8 4.2 5.5 2.1 2.1 3.5 3.5 6.2 3.5v.7h-1.4c-5.5 0-7.6-2.8-9-4.2-.7-.7-4.2-6.2-4.9-6.9-1.4-1.4-2.8-3.5-4.9-3.5v-.6h2.8c2.8 0 5.5 0 6.9-4.2 0-.7.7-1.4 0-2.8 0-3.5-2.8-5.5-6.2-6.2h-5.5v24.3c0 1.4 1.4 2.8 2.8 2.8h.7v.7h-9.7v-.7h.7c1.4 0 2.8-1.4 2.8-2.8v-22.2c0-1.4-1.4-2.8-2.8-2.8h-.7v-.7h12.5v.7z" fill="#FFF"/></svg>