<svg id="Layer_1" xmlns="http://www.w3.org/2000/svg" viewBox="0 0 709.2 142.7"><style>.st0{opacity:.2;fill:#231f20}.st1{fill:#fff}</style><path class="st0" d="M103.2 8.8H86.8v79.6h16.4V64.3h37.3V8.8h-37.3zm20.9 39.1h-20.9V25.2h20.9v22.7zM518.8 8.8h-16.4v79.6h16.4V64.3h37.3V8.8h-37.3zm20.9 39.1h-20.9V25.2h20.9v22.7zM195.2 8.8h-37.3v79.6h53.7V8.8h-16.4zm-20.9 63.3V25.2h20.9V72h-20.9zM301.2 8.5v79.6h53.7V71.7h-37.3V58.3h17.2V41.9h-17.2v-17h37.3V8.5h-37.3zm-33.1.1h-28.3v.3h-.1l-5.4 63.2h-8.1v16.4h23v-.8h.1l5.5-62.7h13.3v63.2h16.4V8.6zm-236.8.2H14.9v79.7h16.4V25.2h20.9v63.3h16.4V8.8H52.2zm354.5 0h-17.7v16.4h17.7v63.3h16.4V25.2h19.6V8.8h-19.6zm91.8.9l-39.3-.1v.1h-.2l-6.6 78.1h16.3l1.7-19.5h17l1.7 19.5h16.3l-6.6-78.1h-.3zm-26.8 42.1L453 26h9.7l2.2 25.8h-14.1zM684 87.7h16.3l-6.6-78.1h-39.5v.1h-.2l-6.6 78.1h16.3l1.7-19.5h17l1.6 19.4zm-17.3-35.9L669 26h9.7l2.2 25.8h-14.2zM615.2 8.3l-20.9 32.1h-4.7V8.8h-16.4v79.6h16.4V56.8h5.7l19.9 30.6 19.3-.5-25.7-39 25.7-39.1z"/><path class="st1" d="M97.2 2.8H80.8v79.6h16.4V58.3h37.3V2.8H97.2zm20.9 39.1H97.2V19.2h20.9v22.7zM512.8 2.8h-16.4v79.6h16.4V58.3h37.3V2.8h-37.3zm20.9 39.1h-20.9V19.2h20.9v22.7zM189.2 2.8h-37.3v79.6h53.7V2.8h-16.4zm-20.9 63.3V19.2h20.9V66h-20.9zM295.2 2.5v79.6h53.7V65.7h-37.3V52.3h17.2V35.9h-17.2v-17h37.3V2.5h-37.3zm-33.1.1h-28.3v.3h-.1l-5.4 63.2h-8.1v16.4h23v-.8h.1l5.5-62.7h13.3v63.2h16.4V2.6zm-236.8.2H8.9v79.7h16.4V19.2h20.9v63.3h16.4V2.8H46.2zm354.5 0h-17.7v16.4h17.7v63.3h16.4V19.2h19.6V2.8h-19.6zm91.8.9l-39.3-.1v.1h-.2l-6.6 78.1h16.3l1.7-19.5h17l1.7 19.5h16.3l-6.6-78.1h-.3zm-26.8 42.1L447 20h9.7l2.2 25.8h-14.1zM678 81.7h16.3l-6.6-78.1h-39.5v.1h-.2l-6.6 78.1h16.3l1.7-19.5h17l1.6 19.4zm-17.3-35.9L663 20h9.7l2.2 25.8h-14.2zM609.2 2.3l-20.9 32.1h-4.7V2.8h-16.4v79.6h16.4V50.8h5.7l19.9 30.6 19.3-.5-25.7-39 25.7-39.1zm-352.5 117h-4.5v21.8h4.5v-6.6H267v-15.2h-10.3zm5.8 10.7h-5.7v-6.2h5.7v6.2zm91.1-10.7v8.7h-6.5v-8.7h-4.4v21.8h4.4v-8.7h6.5v8.7h4.5v-21.8zm-146.4 0H197v21.8h14.7v-21.8h-4.5zm-5.7 17.3v-12.8h5.7v12.8h-5.7zm227.4-17.3v21.8h14.7v-4.5h-10.2v-3.7h4.7v-4.4h-4.7v-4.7h10.2v-4.5h-10.2zm-195.5 0v21.8h14.7v-4.5h-10.2v-3.7h4.7v-4.4h-4.7v-4.7h10.2v-4.5h-10.2zm81.6 0l-6.6 13v-13h-4.5v21.8h4.5l6.6-13v13h4.5v-21.8zm100 0h-4.5v21.8h4.5v-17.3h5.7v17.3h4.5v-21.8h-4.5zm-195.2 0h-4.5v21.8h4.5v-17.3h5.7v17.3h4.5v-21.8h-4.5zm265.2 0h-4.8v4.5h4.8v17.3h4.5v-17.3h5.4v-4.5h-5.4zm-194.9 0h-4.9v4.5h4.9v17.3h4.5v-17.3h5.3v-4.5h-5.3zm186.8.2H466l-1.8 21.4h4.5l.5-5.3h4.6l.5 5.3h4.5l-1.9-21.4zm-7.3 11.6l.6-7.1h2.6l.6 7.1h-3.8zm-187.9-11.6h-10.9l-1.8 21.4h4.5l.5-5.3h4.6l.5 5.3h4.5l-1.9-21.4zm-7.3 11.6l.6-7.1h2.6l.6 7.1h-3.8zm98.8-11.6h-10.9l-1.8 21.4h4.5l.5-5.3h4.6l.5 5.3h4.5l-1.9-21.4zm-7.4 11.6l.6-7.1h2.6l.6 7.1h-3.8zm-27.7-7.3v-4.5h-14.9v21.9h15v-8.3l-2.5-2.6 2.5-2.1-.1-4.4zm-4.5 0v2.6l-1.9 1.5h-4v-4.2h5.9zm-1.4 12.8h-4.5v-4.2h4l1.9 1.5v2.6h-1.4zm119-17.3V130h5.7v-10.7h4.5v21.8h-4.5v-6.6h-10.2v-15.2zm56.5 8.1h-6v-8.1h-4.5v21.8h15v-13.7h-4.5zm-6 9.2v-4.7h6v4.7h-6zm-108.3-12.8v-4.5h-14.7v15.1h2.5l-4 6.6h5.3l4-6.6h2.4v6.6h4.5v-17.2zm-10.2 6.2v-6.2h5.7v6.2h-5.7z"/></svg>