<svg width="266" height="34" viewBox="0 0 266 34" xmlns="http://www.w3.org/2000/svg"><title>logo</title><g fill="none" fill-rule="evenodd"><path d="M36.259 17.821h8.04V8.95h-8.04v8.872zm0-15.282h-6.304v31.123h6.304v-9.431h14.344V2.539H36.259zm159.753 15.282h8.04V8.95h-8.04v8.872zm0-15.282h-6.304v31.123h6.304v-9.431h14.344V2.539H196.01zM63.584 27.253h8.04V8.95h-8.04v18.304zm8.04-24.714H57.278v31.124h20.648V2.538h-6.304zm40.716-.137v31.124h20.648v-6.41h-14.343v-5.23h6.633v-6.41h-6.633V8.812h14.343v-6.41h-14.343zm-12.694.035H88.759v.142l-.038-.004-2.065 24.678h-3.12v6.41h8.844v-.316h.046l2.089-24.5h5.13V33.56h6.305V2.437zM8.61 2.54H2.308v31.122H8.61V8.95h8.04v24.713h6.303V2.54H16.65zm136.273 0h-6.808v6.409h6.808v24.713h6.304V8.95h7.536V2.54h-7.536zm24.985 16.8l.86-10.09h3.714l.86 10.09h-5.434zm10.283-16.475v-.024h-15.117v.026l-.09-.008-2.552 30.502h6.28l.65-7.612h6.527l.649 7.612h6.28L180.225 2.86l-.074.006zm72.71 16.475l.86-10.09h3.714l.86 10.09h-5.434zm6.63 14.021h6.28L263.218 2.86l-.074.006v-.024h-15.117v.026l-.09-.008-2.552 30.502h6.28l.65-7.612h6.527l.649 7.612zM233.062 2.345l-8.047 12.541h-1.801V2.53h-6.305v31.124h6.305V21.295h2.186l7.662 11.941 7.411-.184-9.893-15.262 9.893-15.26z" fill="#231F1F"/><path d="M33.953 15.476h8.04V6.604h-8.04v8.872zm0-15.282h-6.304v31.124h6.304v-9.432h14.343V.194H33.952zm159.752 15.282h8.04V6.604h-8.04v8.872zm0-15.282h-6.304v31.124h6.304v-9.432h14.344V.194h-14.344zM61.277 24.908h8.04V6.604h-8.04v18.304zM69.317.194H54.973v31.124H75.62V.194h-6.304zm40.717-.137v31.124h20.648v-6.41h-14.344v-5.23h6.633v-6.41h-6.633V6.467h14.344V.057h-14.344zM97.34.092H86.452v.142L86.415.23 84.35 24.908h-3.12v6.41h8.845v-.316h.046l2.088-24.5h5.132v24.713h6.304V.092zM14.344.194H0v31.123h6.304V6.604h8.04v24.713h6.304V.194zm128.233 0h-6.808v6.41h6.808v24.714h6.304V6.604h7.536V.194h-7.536zm24.985 16.801l.86-10.09h3.714l.86 10.09h-5.434zM177.845.52V.496h-15.117v.026l-.09-.008-2.552 30.502h6.28l.65-7.611h6.526l.65 7.611h6.28L177.919.514l-.074.006zm72.71 16.475l.86-10.09h3.714l.86 10.09h-5.434zm6.63 14.021h6.28L260.912.514l-.074.006V.496H245.72v.026l-.089-.008-2.552 30.502h6.28l.65-7.611h6.526l.65 7.611zM230.755 0l-8.047 12.541h-1.8V.184h-6.305v31.124h6.305V18.95h2.186l7.661 11.94 7.412-.184-9.894-15.261L238.167.184z" fill="#FFF"/></g></svg>