<svg width="187" height="13" viewBox="0 0 187 13" xmlns="http://www.w3.org/2000/svg"><title>оперативная печать</title><path d="M39.253 0H33v13h2.749V9.06H42V0h-2.747zm-3.504 6.383h3.504V2.677h-3.504v3.706zM92.383 0v5.162h-3.767V0H86v13h2.617V7.838h3.766V13H95V0zM6.252 0H0v13h9V0H6.252zM2.75 10.323h3.503V2.677H2.75v7.646zM139.748 0H137v13h9v-2.677h-6.252V8.138h2.89V5.46h-2.89V2.677H146V0zm-115 0H22v13h9v-2.677h-6.252V8.138h2.891V5.46h-2.891V2.677H31V0zm44.653 0l-3.807 7.732V.007H63V13h2.594l3.812-7.732V13H72V.007zm62.852 0H126v13h2.749V2.677h3.504V13H135V0zm-115 0H11v13h2.749V2.677h3.504V13H20V0zm156.462 0H168v2.677h2.968V13h2.747V2.677H177V0zm-116 0H52v2.677h2.967V13h2.748V2.677H61V0zm101.451 0v.012l-.039-.003L158 13h2.773l.286-3.242h2.882l.286 3.242H167L165.873.009l-.033.002V0h-6.674zm2.514 2.73h1.64l.38 4.298h-2.4l.38-4.298zM44.166 0v.012l-.039-.003L43 13h2.773l.286-3.242h2.882L49.227 13H52L50.874.009 50.84.01V0h-6.674zm2.515 2.73h1.639l.38 4.298h-2.4l.38-4.298zM98.166 0v.012l-.039-.003L97 13h2.773l.286-3.242h2.882l.286 3.242H106L104.873.009l-.033.002V0h-6.674zm2.514 2.73h1.64l.38 4.298h-2.4l.38-4.298zM80.427 0h-5.426v5.162H75V13h9v-2.677h-.006L84 8.044l-1.494-1.543L84 5.223l-.006-2.546H84V0h-3.573zm-2.726 2.677h3.584V4.24l-1.169.923h-2.415V2.677zm0 5.161h2.415l1.17.91v1.575H77.7V7.838zM154.255 0v3.888h-.003v2.495h-3.504V3.888h-.001V0H148v9.061h6.252V13H157V0zm23.765 0v4.817H178v2.677h.02v2.829H178V13h9V4.817h-6.291V0h-2.689zm2.689 10.322h3.602V7.494h-3.602v2.828zM114.224 0h-6.319v9.061h1.541L107 13h3.284l2.447-3.94h1.493V13H117V0h-2.776zm-3.541 2.677h3.54v3.706h-3.54V2.677z" fill="#FFF" fill-rule="evenodd"/></svg>