<?xml version="1.0" encoding="UTF-8"?>
<svg width="54px" height="46px" viewBox="0 0 54 46" version="1.1" xmlns="http://www.w3.org/2000/svg" xmlns:xlink="http://www.w3.org/1999/xlink">
    <!-- Generator: Sketch 42 (36781) - http://www.bohemiancoding.com/sketch -->
    <title>breadcrumps</title>
    <desc>Created with Sketch.</desc>
    <defs>
        <polygon id="path-1" points="25.116 14.9995 25.116 0.7655 0.0004 0.7655 0.0004 14.9995 25.116 14.9995"></polygon>
        <polygon id="path-3" points="0 45.8205 25.116 45.8205 25.116 -0.0005 0 -0.0005"></polygon>
    </defs>
    <g id="Symbols" stroke="none" stroke-width="1" fill="none" fill-rule="evenodd">
        <g id="secondary-nav" transform="translate(-23.000000, -17.000000)">
            <g id="breadcrumps" transform="translate(23.000000, 17.000000)">
                <g id="Page-1">
                    <g id="Group-3" transform="translate(0.000000, 30.820500)">
                        <mask id="mask-2" fill="white">
                            <use xlink:href="#path-1"></use>
                        </mask>
                        <g id="Clip-2"></g>
                        <path d="M21.1044,0.7655 L21.1044,6.6465 L19.8404,6.6465 L19.8404,0.7655 L18.3574,1.8685 C17.9714,2.1555 17.4374,2.1375 17.0714,1.8255 L15.8284,0.7655 L15.8284,6.6465 L14.5644,6.6465 L14.5644,0.7655 L13.2004,1.8485 C12.8244,2.1475 12.2924,2.1475 11.9154,1.8485 L10.5524,0.7655 L10.5524,6.6465 L9.2884,6.6465 L9.2884,0.7655 L7.9964,1.8355 C7.6264,2.1425 7.0934,2.1525 6.7114,1.8615 L5.2764,0.7655 L5.2764,6.6465 L4.0124,6.6465 L4.0124,0.7655 L2.6244,1.8535 C2.2464,2.1495 1.7134,2.1455 1.3394,1.8445 L0.0004,0.7655 L0.0004,6.6465 L0.0004,14.9995 L4.0124,14.9995 L5.2764,14.9995 L9.2884,14.9995 L10.5524,14.9995 L14.5644,14.9995 L15.8284,14.9995 L19.8404,14.9995 L21.1044,14.9995 L24.8414,14.9995 L25.1164,14.9995 L25.1164,0.7655 L23.7284,1.8535 C23.3504,2.1495 22.8184,2.1455 22.4444,1.8445 L21.1044,0.7655 Z" id="Fill-1" fill="#CC3333" mask="url(#mask-2)"></path>
                    </g>
                    <mask id="mask-4" fill="white">
                        <use xlink:href="#path-3"></use>
                    </mask>
                    <g id="Clip-5"></g>
                    <path d="M15.334,20.0445 L16.543,20.0445 L16.543,17.6265 L15.334,17.6265 L15.334,20.0445 Z M12.421,29.6895 C10.205,29.6895 8.409,27.8935 8.409,25.6775 C8.409,23.4625 10.205,21.6655 12.421,21.6655 C14.637,21.6655 16.433,23.4625 16.433,25.6775 C16.433,27.8935 14.637,29.6895 12.421,29.6895 L12.421,29.6895 Z M8.409,20.0445 L9.618,20.0445 L9.618,17.6265 L8.409,17.6265 L8.409,20.0445 Z M10.717,20.0445 L11.926,20.0445 L11.926,17.6265 L10.717,17.6265 L10.717,20.0445 Z M13.025,20.0445 L14.234,20.0445 L14.234,17.6265 L13.025,17.6265 L13.025,20.0445 Z M17.642,20.5945 L17.642,16.5275 L15.846,16.5275 L14.173,9.7885 L12.421,2.7325 L10.669,9.7885 L8.995,16.5275 L7.2,16.5275 L7.2,20.5945 L6.705,20.5945 L6.705,30.7615 L18.137,30.7615 L18.137,20.5945 L17.642,20.5945 Z" id="Fill-4" fill="#CC3333" mask="url(#mask-4)"></path>
                    <polygon id="Fill-6" fill="#CC3333" mask="url(#mask-4)" points="12.4208 0 12.8648 0.899 13.8578 1.044 13.1388 1.744 13.3088 2.732 12.4208 2.266 11.5328 2.732 11.7028 1.744 10.9838 1.044 11.9768 0.899"></polygon>
                </g>
                <polygon id="Page-1" fill="#CC3333" points="46 14.9997 50.5 23.4467 46 31.5827 49 31.5827 53.5 23.4467 49 14.9997"></polygon>
            </g>
        </g>
    </g>
</svg>