<?xml version="1.0" encoding="UTF-8"?>
<svg width="13px" height="10px" viewBox="0 0 13 10" version="1.1" xmlns="http://www.w3.org/2000/svg" xmlns:xlink="http://www.w3.org/1999/xlink">
    <!-- Generator: Sketch 42 (36781) - http://www.bohemiancoding.com/sketch -->
    <title>Combined Shape</title>
    <desc>Created with Sketch.</desc>
    <defs></defs>
    <g id="Page-1" stroke="none" stroke-width="1" fill="none" fill-rule="evenodd">
        <g id="Desktop-HD" transform="translate(-672.000000, -118.000000)" fill="#CC3333">
            <g id="block" transform="translate(210.000000, 0.000000)">
                <g id="Contacts" transform="translate(462.000000, 67.000000)">
                    <path d="M12.447062,51 C12.6828628,51 12.8743251,51.1919661 12.8743251,51.4272631 L12.8743251,52.1966391 C12.8743251,52.2475277 12.831498,52.2727201 12.7901825,52.3009356 C12.7559208,52.3246165 12.6647243,52.3755051 12.6299588,52.3946514 L6.50316664,55.9991802 C6.48653965,56.0087534 6.46789728,56.0137918 6.4492549,56.0137918 C6.43061252,56.0137918 6.41247399,56.0092572 6.39584701,55.9996841 L0.078096446,52.3911244 C0.0428270833,52.3724821 0,52.3271357 0,52.2878356 L0,51.427767 C0,51.1919661 0.191462255,51 0.427263137,51 L12.447062,51 Z M12.8210684,53.5844381 C12.8543223,53.6035844 12.8744762,53.6388537 12.8744762,53.6771462 L12.8744762,59.4552755 C12.8744762,59.4991103 12.8477723,59.5384104 12.8064568,59.5550374 C12.7943644,59.559572 12.7807605,59.5620913 12.7676605,59.5620913 C12.7379334,59.5620913 12.7102218,59.5499989 12.689564,59.5278296 L9.22157796,55.789781 C9.1999125,55.7661001 9.19033939,55.7338539 9.19437017,55.7016076 C9.1989048,55.6693613 9.21805103,55.6411458 9.24576267,55.6250227 L12.7132449,53.584942 C12.7470027,53.5657958 12.7878144,53.5652919 12.8210684,53.5844381 Z M8.24678316,56.3101049 L12.4020179,60.7893139 C12.4312411,60.8200487 12.4387988,60.865395 12.421668,60.9041913 C12.405041,60.9434914 12.3667486,60.9686838 12.3239215,60.9686838 L0.427061598,60.9686838 C0.356019024,60.9686838 0.286487995,60.9485299 0.214437725,60.9062067 C0.185214539,60.8890758 0.165564466,60.858845 0.161533681,60.825591 C0.158006745,60.7918332 0.170602946,60.7585792 0.1952915,60.7354022 L4.83976272,56.4275015 C4.87402439,56.395759 4.92491304,56.3902167 4.96522089,56.4128899 L6.18856392,57.1117271 C6.35231454,57.204939 6.56141147,57.2039313 6.72465824,57.1082002 L8.11477498,56.2904548 C8.15760206,56.2647585 8.2125215,56.273324 8.24678316,56.3101049 Z M3.81780775,55.917708 L0.179521056,59.2934899 C0.159367135,59.3121323 0.133167037,59.3217054 0.106966939,59.3217054 C0.0918514975,59.3217054 0.0777437524,59.3186823 0.0636360073,59.3126361 C0.0248397083,59.2960091 0.000151154412,59.2572128 0.000151154412,59.2148896 L0.000151154412,53.7607346 C0.000151154412,53.722946 0.0198012279,53.6876766 0.0525513505,53.6685304 C0.085805321,53.6493841 0.126617012,53.6493841 0.159367135,53.6680265 L3.79866152,55.7469035 C3.82788471,55.7635305 3.84803863,55.7937614 3.85156556,55.8275192 C3.85559635,55.8607732 3.84300015,55.8950349 3.81780775,55.917708 Z" id="Combined-Shape"></path>
                </g>
            </g>
        </g>
    </g>
</svg>