<?xml version="1.0" encoding="utf-8"?>
<!-- Generator: Adobe Illustrator 18.1.1, SVG Export Plug-In . SVG Version: 6.00 Build 0)  -->
<!DOCTYPE svg PUBLIC "-//W3C//DTD SVG 1.1//EN" "http://www.w3.org/Graphics/SVG/1.1/DTD/svg11.dtd">
<svg version="1.1" id="Layer_1" xmlns="http://www.w3.org/2000/svg" xmlns:xlink="http://www.w3.org/1999/xlink" x="0px" y="0px"
	 viewBox="0 0 14.2 10.5" enable-background="new 0 0 14.2 10.5" xml:space="preserve">
<g>
	<path d="M13.7-0.5H0.5C0.2-0.5,0-0.3,0,0v0.9C0,1,0,1,0.1,1.1l7,4c0,0,0,0,0.1,0c0,0,0,0,0.1,0l6.8-4C14,1,14.1,1,14.1,1
		c0,0,0.1-0.1,0.1-0.1V0C14.2-0.3,14-0.5,13.7-0.5z"/>
	<path d="M14.1,2.4c0,0-0.1,0-0.1,0l-3.8,2.3c0,0-0.1,0-0.1,0.1c0,0,0,0.1,0,0.1L14,8.9c0,0,0.1,0,0.1,0c0,0,0,0,0,0
		c0,0,0.1-0.1,0.1-0.1V2.5C14.2,2.4,14.2,2.4,14.1,2.4z"/>
	<path d="M9.1,5.4c0,0-0.1,0-0.1,0L7.4,6.3C7.2,6.4,7,6.4,6.8,6.3L5.5,5.5c0,0-0.1,0-0.1,0l-5.1,4.8c0,0,0,0.1,0,0.1
		c0,0,0,0.1,0.1,0.1c0.1,0,0.2,0.1,0.2,0.1h13.1c0,0,0.1,0,0.1-0.1c0,0,0-0.1,0-0.1L9.1,5.4z"/>
	<path d="M4.2,5C4.2,4.9,4.3,4.9,4.2,5c0-0.1,0-0.2,0-0.2l-4-2.3c0,0-0.1,0-0.1,0C0,2.5,0,2.5,0,2.6v6c0,0,0,0.1,0.1,0.1
		c0,0,0,0,0,0c0,0,0.1,0,0.1,0L4.2,5z"/>
</g>
</svg>
