<?xml version="1.0" encoding="UTF-8"?>
<svg width="11px" height="11px" viewBox="0 0 11 11" version="1.1" xmlns="http://www.w3.org/2000/svg" xmlns:xlink="http://www.w3.org/1999/xlink">
    <!-- Generator: Sketch 42 (36781) - http://www.bohemiancoding.com/sketch -->
    <title>Fill 1</title>
    <desc>Created with Sketch.</desc>
    <defs></defs>
    <g id="Page-1" stroke="none" stroke-width="1" fill="none" fill-rule="evenodd">
        <g id="Desktop-HD" transform="translate(-672.000000, -74.000000)" fill="#CC3333">
            <g id="block" transform="translate(210.000000, 0.000000)">
                <g id="Contacts" transform="translate(462.000000, 67.000000)">
                    <path d="M10.9938239,15.6811601 C10.9677241,15.5187734 10.865935,15.3804054 10.7135123,15.2979067 L8.46110187,13.9700954 L8.44231003,13.9601747 C8.35148282,13.9131818 8.24603974,13.8891631 8.13798668,13.8891631 C7.94954632,13.8891631 7.76893588,13.9606968 7.64417897,14.0860113 L6.97915675,14.7517444 C6.950447,14.7783738 6.8580538,14.8175345 6.82986605,14.819101 C6.82203611,14.8185788 6.05626877,14.7632316 4.64635902,13.3529216 C3.23853726,11.9452224 3.17902978,11.176627 3.17902978,11.176627 C3.17902978,11.1374662 3.21765744,11.0450468 3.2453232,11.0163289 L3.81221027,10.4492809 C4.01213454,10.2487777 4.07216401,9.9172165 3.95367104,9.65979969 L2.70140393,7.30336545 C2.61057672,7.11591589 2.43362026,7 2.23734996,7 C2.09849917,7 1.96486833,7.0574358 1.85994724,7.16238667 L0.31484067,8.70479897 C0.166593959,8.85204348 0.0387050701,9.10998244 0.0110393105,9.31727346 C-0.0025325715,9.41648075 -0.27658019,11.78388 2.96814361,15.0305691 C5.72323566,17.7859211 7.871247,18 8.46475584,18 C8.59212273,18 8.66676808,17.9911236 8.68086196,17.989035 C8.88757216,17.9613614 9.14491593,17.8339583 9.29211865,17.6861917 L10.8367032,16.1416908 C10.9625041,16.0148099 11.0199236,15.8477239 10.9938239,15.6811601" id="Fill-1"></path>
                </g>
            </g>
        </g>
    </g>
</svg>