<?xml version="1.0" encoding="UTF-8"?>
<svg width="12px" height="17px" viewBox="0 0 12 17" version="1.1" xmlns="http://www.w3.org/2000/svg" xmlns:xlink="http://www.w3.org/1999/xlink">
    <!-- Generator: Sketch 42 (36781) - http://www.bohemiancoding.com/sketch -->
    <title>Fill 1</title>
    <desc>Created with Sketch.</desc>
    <defs></defs>
    <g id="Page-1" stroke="none" stroke-width="1" fill="none" fill-rule="evenodd">
        <g id="Desktop-HD" transform="translate(-916.000000, -113.000000)" fill="#CC3333">
            <g id="block" transform="translate(210.000000, 0.000000)">
                <g id="Contacts" transform="translate(462.000000, 67.000000)">
                    <path d="M250,46 C246.672727,46 244,48.6032267 244,51.8439783 C244,55.0847299 250,63 250,63 C250,63 256,55.0847299 256,51.8439783 C256,48.6032267 253.327273,46 250,46 M250,54.500332 C248.472727,54.500332 247.272727,53.3315364 247.272727,51.8439783 C247.272727,50.3564202 248.472727,49.1876245 250,49.1876245 C251.527273,49.1876245 252.727273,50.3564202 252.727273,51.8439783 C252.727273,53.3315364 251.527273,54.500332 250,54.500332" id="Fill-1"></path>
                </g>
            </g>
        </g>
    </g>
</svg>