<?xml version="1.0" encoding="UTF-8"?>
<svg width="442px" height="35px" viewBox="0 0 442 35" version="1.1" xmlns="http://www.w3.org/2000/svg" xmlns:xlink="http://www.w3.org/1999/xlink">
    <!-- Generator: Sketch 42 (36781) - http://www.bohemiancoding.com/sketch -->
    <title>печати</title>
    <desc>Created with Sketch.</desc>
    <defs></defs>
    <g id="Page-1" stroke="none" stroke-width="1" fill="none" fill-rule="evenodd">
        <g id="Desktop-HD-Copy" transform="translate(-500.000000, -880.000000)" fill="#000000">
            <g id="section" transform="translate(211.000000, 880.000000)">
                <g id="печати" transform="translate(289.000000, 0.000000)">
                    <polygon id="Fill-1" points="390.2796 0.0084 381.1376 0.0084 373.9686 0.0084 373.9686 7.1774 373.9686 34.8194 381.1376 34.8194 381.1376 7.1774 390.2796 7.1774 390.2796 34.8194 397.4486 34.8194 397.4486 7.1774 397.4486 0.0084"></polygon>
                    <polygon id="Fill-2" points="359.7012 0.0084 351.7022 12.0284 343.7032 0.0084 336.5342 0.0084 336.5342 34.8194 343.7032 34.8194 343.7032 10.7804 348.1182 17.4134 351.7022 22.8004 355.2862 17.4134 359.7012 10.7804 359.7012 34.8194 366.8702 34.8194 366.8702 0.0084"></polygon>
                    <polygon id="Fill-3" points="293.9328 0.0084 286.7638 0.0084 279.0228 0.0084 279.0228 7.1774 286.7638 7.1774 286.7638 34.8194 293.9328 34.8194 293.9328 7.1774 302.5028 7.1774 302.5028 0.0084"></polygon>
                    <path d="M309.8718,0.345 L309.8718,0.375 L309.7698,0.366 L306.8678,34.482 L314.0098,34.482 L314.7468,25.969 L322.1698,25.969 L322.9078,34.482 L330.0498,34.482 L327.1468,0.366 L327.0628,0.373 L327.0628,0.345 L309.8718,0.345 Z M316.3468,7.514 L320.5708,7.514 L321.5488,18.799 L315.3688,18.799 L316.3468,7.514 Z" id="Fill-4"></path>
                    <polygon id="Fill-5" points="433.9089 0.0084 433.9089 34.8184 433.9089 34.8194 441.0769 34.8194 441.0769 0.0084"></polygon>
                    <path d="M404.5131,0.0084 L404.5131,12.9064 L404.4581,12.9064 L404.4571,12.9064 L404.4571,20.0744 L404.5131,20.0744 L404.5131,27.6504 L404.4581,27.6504 L404.4571,27.6504 L404.4571,34.8184 L404.5131,34.8184 L404.5131,34.8194 L411.6811,34.8194 L411.6811,34.8184 L421.2861,34.8184 L421.2861,34.8194 L428.4561,34.8194 L428.4561,12.9064 L421.2861,12.9064 L411.6811,12.9064 L411.6811,0.0084 L404.5131,0.0084 Z M411.6811,20.0744 L421.2861,20.0754 L421.2861,27.6504 L411.6811,27.6504 L411.6811,20.0744 Z" id="Fill-6"></path>
                    <polygon id="Fill-7" points="265.8267 0.0084 265.8267 27.6504 258.3527 27.6504 258.3527 0.0084 251.1827 0.0084 251.1827 27.6504 244.1457 27.6504 244.1457 0.0084 236.9777 0.0084 236.9777 27.6504 236.9777 34.8184 236.9777 34.8194 244.1457 34.8194 251.1827 34.8194 258.3527 34.8194 265.8267 34.8194 272.9947 34.8194 272.9947 0.0084"></polygon>
                    <polygon id="Fill-8" points="209.5488 0.0003 199.0288 20.7133 199.0288 0.0163 191.8598 0.0163 191.8598 34.8273 199.0288 34.8273 209.5628 14.1133 209.5628 34.8273 216.7318 34.8273 216.7318 0.0163"></polygon>
                    <polygon id="Fill-9" points="163.566 0.0003 153.046 20.7133 153.046 0.0163 145.877 0.0163 145.877 34.8273 153.046 34.8273 163.58 14.1133 163.58 34.8273 170.749 34.8273 170.749 0.0163"></polygon>
                    <polygon id="Fill-10" points="37.7928 0.0084 30.6238 0.0084 30.6238 7.1774 30.6238 14.6304 30.6238 21.8004 30.6238 27.6504 30.6238 34.8194 37.7928 34.8194 54.1048 34.8194 54.1048 27.6504 37.7928 27.6504 37.7928 21.8004 45.3358 21.8004 45.3358 14.6304 37.7928 14.6304 37.7928 7.1774 54.1048 7.1774 54.1048 0.0084"></polygon>
                    <polygon id="Fill-11" points="16.3107 0.0084 7.1687 0.0084 -0.0003 0.0084 -0.0003 7.1774 -0.0003 34.8194 7.1687 34.8194 7.1687 7.1774 16.3107 7.1774 16.3107 34.8194 23.4797 34.8194 23.4797 7.1774 23.4797 0.0084"></polygon>
                    <polygon id="Fill-12" points="131.5107 0.0084 124.3417 0.0084 116.6007 0.0084 116.6007 7.1774 124.3417 7.1774 124.3417 34.8194 131.5107 34.8194 131.5107 7.1774 140.0807 7.1774 140.0807 0.0084"></polygon>
                    <path d="M93.1986,0.345 L93.1986,0.375 L93.0966,0.366 L90.1946,34.482 L97.3366,34.482 L98.0746,25.969 L105.4966,25.969 L106.2346,34.482 L113.3766,34.482 L110.4736,0.366 L110.3896,0.373 L110.3896,0.345 L93.1986,0.345 Z M99.6736,7.514 L103.8976,7.514 L104.8756,18.799 L98.6956,18.799 L99.6736,7.514 Z" id="Fill-13"></path>
                    <polygon id="Fill-14" points="76.2597 0.0084 76.2597 10.4194 76.2527 10.4194 76.2527 17.1014 67.1107 17.1014 67.1107 10.4194 67.1077 10.4194 67.1077 0.0084 59.9417 0.0084 59.9417 7.1774 59.9417 17.1014 59.9417 23.8714 59.9417 24.2694 76.2527 24.2694 76.2527 34.8194 83.4217 34.8194 83.4217 24.2694 83.4217 17.1014 83.4217 7.1774 83.4217 0.0084"></polygon>
                </g>
            </g>
        </g>
    </g>
</svg>