<?xml version="1.0" encoding="utf-8"?><!DOCTYPE svg PUBLIC "-//W3C//DTD SVG 1.1//EN" "http://www.w3.org/Graphics/SVG/1.1/DTD/svg11.dtd"><svg xmlns="http://www.w3.org/2000/svg" xmlns:xlink="http://www.w3.org/1999/xlink"><symbol viewBox="0 0 14.2 10.5" id="envelope"><path d="M13.7-.5H.5C.2-.5 0-.3 0 0v.9c0 .1 0 .1.1.2l7 4h.2l6.8-4c-.1-.1 0-.1 0-.1l.1-.1V0c0-.3-.2-.5-.5-.5zM14.1 2.4H14l-3.8 2.3s-.1 0-.1.1v.1l3.9 4h.1l.1-.1V2.5c0-.1 0-.1-.1-.1zM9.1 5.4H9l-1.6.9c-.2.1-.4.1-.6 0l-1.3-.8h-.1L.3 10.3v.1s0 .1.1.1.2.1.2.1h13.1s.1 0 .1-.1v-.1l-4.7-5zM4.2 5c0-.1.1-.1 0 0v-.2l-4-2.3H.1c-.1 0-.1 0-.1.1v6s0 .1.1.1h.1l4-3.7z"/></symbol><symbol viewBox="0 0 14.2 11.7" id="phone"><path d="M13 9.2c0-.2-.1-.3-.3-.4l-2.4-1.4c-.1 0-.2-.1-.3-.1-.2 0-.4.1-.5.2l-.8.8s-.1.1-.2.1c0 0-.8-.1-2.3-1.6-1.5-1.5-1.6-2.4-1.6-2.4s0-.1.1-.2l.6-.6c.2-.2.3-.6.2-.8L4.1.3C4 .1 3.8 0 3.6 0c-.1 0-.3.1-.4.2L1.6 1.8c-.2.2-.3.4-.3.7 0 .1-.3 2.6 3.1 6.1 2.9 2.9 5.2 3.2 5.9 3.2h.2c.2 0 .5-.2.7-.3l1.6-1.6c.1-.3.2-.5.2-.7z"/></symbol><symbol viewBox="508.1 1122.9 9.8 14.2" id="point"><path fill="#231F20" d="M513 1130c-1.2 0-2.2-1-2.2-2.2s1-2.2 2.2-2.2c1.2 0 2.2 1 2.2 2.2s-1 2.2-2.2 2.2zm0-7.1c-2.7 0-4.9 2.2-4.9 4.9s4.9 9.3 4.9 9.3 4.9-6.6 4.9-9.3c0-2.7-2.2-4.9-4.9-4.9z"/></symbol></svg>