<?xml version="1.0" encoding="utf-8"?>
<!-- Generator: Adobe Illustrator 18.1.1, SVG Export Plug-In . SVG Version: 6.00 Build 0)  -->
<!DOCTYPE svg PUBLIC "-//W3C//DTD SVG 1.1//EN" "http://www.w3.org/Graphics/SVG/1.1/DTD/svg11.dtd">
<svg version="1.1" id="Layer_1" xmlns="http://www.w3.org/2000/svg" xmlns:xlink="http://www.w3.org/1999/xlink" x="0px" y="0px"
	 viewBox="0 255.3 1200 1150.7" enable-background="new 0 255.3 1200 1150.7" xml:space="preserve">
<polygon fill="#161E29" stroke="#000000" stroke-miterlimit="10" points="1334.8,1606.6 1361.1,235.6 -217,196.2 -351.8,1386.3 
	657.5,1672.3 "/>
<rect y="255.3" fill="none" stroke="#000000" stroke-miterlimit="10" width="1200" height="1150.7"/>
<polygon fill="#CC3333" stroke="#000000" stroke-miterlimit="10" points="-186.7,738.6 1327.6,413.2 1327.6,1307.4 -186.7,1632.9 
	"/>
<polygon fill="#CC3333" stroke="#000000" stroke-miterlimit="10" points="-186.7,758.4 1327.6,432.9 1327.6,1327.1 -186.7,1652.6 
	"/>
<polygon fill="#CC3333" stroke="#000000" stroke-miterlimit="10" points="-186.7,778.1 1327.6,452.6 1327.6,1346.8 -186.7,1672.3 
	"/>
<polygon fill="#CC3333" stroke="#000000" stroke-miterlimit="10" points="-186.7,801.1 1327.6,475.6 1327.6,1369.9 -186.7,1695.3 
	"/>
<polygon fill="#CC3333" stroke="#000000" stroke-miterlimit="10" points="-186.7,817.5 1327.6,492.1 1327.6,1386.3 -186.7,1711.8 
	"/>
<polygon fill="#CC3333" stroke="#000000" stroke-miterlimit="10" points="-186.7,834 1327.6,508.5 1327.6,1402.7 -186.7,1728.2 "/>
<polygon fill="#CC3333" stroke="#000000" stroke-miterlimit="10" points="-186.7,850.4 1327.6,524.9 1327.6,1419.2 -186.7,1744.7 
	"/>
</svg>
