<?xml version="1.0" encoding="utf-8"?>
<!-- Generator: Adobe Illustrator 18.1.1, SVG Export Plug-In . SVG Version: 6.00 Build 0)  -->
<!DOCTYPE svg PUBLIC "-//W3C//DTD SVG 1.1//EN" "http://www.w3.org/Graphics/SVG/1.1/DTD/svg11.dtd">
<svg version="1.1" id="Layer_1" xmlns="http://www.w3.org/2000/svg" xmlns:xlink="http://www.w3.org/1999/xlink" x="0px" y="0px"
	 viewBox="0 848.8 1200 1151.2" enable-background="new 0 848.8 1200 1151.2" xml:space="preserve">
<g>
	<g>
		<g>
			<defs>
				<rect id="SVGID_1_" y="849.6" width="1200" height="1150.7"/>
			</defs>
			<clipPath id="SVGID_2_">
				<use xlink:href="#SVGID_1_"  overflow="visible"/>
			</clipPath>
			<polygon clip-path="url(#SVGID_2_)" fill="#161E29" points="1334.8,2220.5 1361.1,849.6 -217,810.1 -351.8,2000.2 657.5,2286.3 
							"/>
		</g>
	</g>
	<g>
		<g>
			<defs>
				<rect id="SVGID_3_" y="849.6" width="1200" height="1150.7"/>
			</defs>
			<clipPath id="SVGID_4_">
				<use xlink:href="#SVGID_3_"  overflow="visible"/>
			</clipPath>
			<path clip-path="url(#SVGID_4_)" fill="#CC3333" d="M472.8,1234.2c-319.2,0-578,258.8-578,578s258.8,578,578,578
				s578-258.8,578-578S792,1234.2,472.8,1234.2z M472.8,2366.2c-305.9,0-554-248-554-554s248-554,554-554s554,248,554,554
				S778.7,2366.2,472.8,2366.2z"/>
		</g>
		<g>
			<defs>
				<rect id="SVGID_5_" y="849.6" width="1200" height="1150.7"/>
			</defs>
			<clipPath id="SVGID_6_">
				<use xlink:href="#SVGID_5_"  overflow="visible"/>
			</clipPath>
			<circle clip-path="url(#SVGID_6_)" fill="#CC3333" cx="472.8" cy="1812.2" r="542"/>
		</g>
	</g>
</g>
</svg>
