<?xml version="1.0" encoding="utf-8"?>
<!-- Generator: Adobe Illustrator 18.1.1, SVG Export Plug-In . SVG Version: 6.00 Build 0)  -->
<!DOCTYPE svg PUBLIC "-//W3C//DTD SVG 1.1//EN" "http://www.w3.org/Graphics/SVG/1.1/DTD/svg11.dtd">
<svg version="1.1" id="Layer_1" xmlns="http://www.w3.org/2000/svg" xmlns:xlink="http://www.w3.org/1999/xlink" x="0px" y="0px"
	 viewBox="0 424.7 1200 1150.2" enable-background="new 0 424.7 1200 1150.2" xml:space="preserve">
<g>
	<defs>
		<rect id="SVGID_1_" y="424.7" width="1200" height="1150.7"/>
	</defs>
	<clipPath id="SVGID_2_">
		<use xlink:href="#SVGID_1_"  overflow="visible"/>
	</clipPath>
	<polygon clip-path="url(#SVGID_2_)" fill="#161E29" points="1334.8,1795.6 1361.1,424.7 -217,385.2 -351.8,1575.3 657.5,1861.4 	
		"/>
</g>
<g>
	<defs>
		<rect id="SVGID_3_" y="424.7" width="1200" height="1150.7"/>
	</defs>
	<clipPath id="SVGID_4_">
		<use xlink:href="#SVGID_3_"  overflow="visible"/>
	</clipPath>
</g>
<g>
	<defs>
		<rect id="SVGID_5_" y="424.7" width="1200" height="1150.7"/>
	</defs>
	<clipPath id="SVGID_6_">
		<use xlink:href="#SVGID_5_"  overflow="visible"/>
	</clipPath>
	<path clip-path="url(#SVGID_6_)" fill="#CC3333" d="M339.3,729.8c-228.1,0-413,184.9-413,413s184.9,413,413,413s413-184.9,413-413
		S567.4,729.8,339.3,729.8z M339.3,1538.6c-218.6,0-395.8-177.2-395.8-395.8S120.7,747,339.3,747s395.8,177.2,395.8,395.8
		S557.9,1538.6,339.3,1538.6z"/>
	<circle clip-path="url(#SVGID_6_)" fill="#CC3333" cx="339.3" cy="1142.8" r="387.3"/>
	<path clip-path="url(#SVGID_6_)" fill="#CC3333" d="M982.7,858.8c-228.1,0-413,184.9-413,413s184.9,413,413,413s413-184.9,413-413
		S1210.8,858.8,982.7,858.8z M982.7,1667.6c-218.6,0-395.8-177.2-395.8-395.8S764.1,876,982.7,876s395.8,177.2,395.8,395.8
		S1201.4,1667.6,982.7,1667.6z"/>
	<circle clip-path="url(#SVGID_6_)" fill="#CC3333" cx="982.7" cy="1271.8" r="387.3"/>
</g>
</svg>
