<svg width="54" height="46" viewBox="0 0 54 46" xmlns="http://www.w3.org/2000/svg" xmlns:xlink="http://www.w3.org/1999/xlink"><title>breadcrumps</title><defs><path id="a" d="M25.116 15V.764H0V15h25.116z"/><path id="c" d="M0 45.82h25.116V0H0z"/></defs><g fill="none" fill-rule="evenodd"><g transform="translate(0 30.82)"><mask id="b" fill="#fff"><use xlink:href="#a"/></mask><path d="M21.104.765v5.881H19.84V.766l-1.483 1.103c-.386.286-.92.269-1.286-.044L15.828.765v5.881h-1.264V.766L13.2 1.849a1.033 1.033 0 0 1-1.285 0L10.552.764v5.881H9.288V.766l-1.292 1.07c-.37.306-.903.316-1.285.025L5.276.765v5.881H4.012V.766L2.624 1.853a1.034 1.034 0 0 1-1.285-.008L0 .764V15h25.116V.764l-1.388 1.088c-.378.297-.91.293-1.284-.008l-1.34-1.08z" fill="#C33" mask="url(#b)"/></g><mask id="d" fill="#fff"><use xlink:href="#c"/></mask><path d="M15.334 20.044h1.209v-2.418h-1.209v2.418zm-2.913 9.645a4.012 4.012 0 1 1 0-8.023 4.012 4.012 0 0 1 0 8.023zm-4.012-9.645h1.209v-2.418H8.409v2.418zm2.308 0h1.209v-2.418h-1.209v2.418zm2.308 0h1.209v-2.418h-1.209v2.418zm4.617.55v-4.067h-1.796l-1.673-6.739-1.752-7.056-1.752 7.057-1.674 6.739H7.2v4.067h-.495v10.167h11.432V20.594h-.495zM12.42 0l.445.899.993.145-.72.7.17.988-.887-.466-.888.466.17-.988-.72-.7.994-.145z" fill="#C33" mask="url(#d)"/><path fill="#C33" d="M46 15l4.5 8.447-4.5 8.136h3l4.5-8.136L49 15z"/></g></svg>