<svg width="13" height="10" viewBox="0 0 13 10" xmlns="http://www.w3.org/2000/svg"><title>Combined Shape</title><path d="M12.447 0c.236 0 .427.192.427.427v.77c0 .05-.043.076-.084.104a2.756 2.756 0 0 1-.16.094L6.503 4.999a.108.108 0 0 1-.107 0L.078 1.392C.043 1.372 0 1.327 0 1.288v-.86C0 .192.191 0 .427 0h12.02zm.374 2.584c.033.02.053.055.053.093v5.778a.108.108 0 0 1-.106.107.106.106 0 0 1-.078-.034L9.222 4.79a.11.11 0 0 1-.028-.088.106.106 0 0 1 .052-.077l3.467-2.04a.108.108 0 0 1 .108 0zM8.247 5.31l4.155 4.48c.03.03.037.075.02.114a.106.106 0 0 1-.098.065H.427a.413.413 0 0 1-.213-.063.11.11 0 0 1-.052-.08.108.108 0 0 1 .033-.09L4.84 5.427a.107.107 0 0 1 .125-.015l1.224.699a.542.542 0 0 0 .536-.004l1.39-.818a.106.106 0 0 1 .132.02zm-4.43-.392L.18 8.293A.107.107 0 0 1 0 8.215V2.76a.107.107 0 0 1 .16-.093l3.639 2.079a.106.106 0 0 1 .019.17z" fill="#C33" fill-rule="evenodd"/></svg>