<svg width="11" height="11" viewBox="0 0 11 11" xmlns="http://www.w3.org/2000/svg"><title>Fill 1</title><path d="M10.994 8.681a.532.532 0 0 0-.28-.383L8.46 6.97l-.019-.01a.664.664 0 0 0-.304-.07.699.699 0 0 0-.494.196l-.665.666a.398.398 0 0 1-.15.067c-.007 0-.773-.056-2.183-1.466C3.24 4.945 3.18 4.177 3.18 4.177c0-.04.039-.132.066-.16l.567-.568c.2-.2.26-.532.142-.79L2.7.304A.518.518 0 0 0 2.237 0a.533.533 0 0 0-.377.162L.315 1.705a1.182 1.182 0 0 0-.304.612c-.014.1-.288 2.467 2.957 5.714C5.723 10.786 7.871 11 8.465 11c.127 0 .202-.009.216-.011a1.18 1.18 0 0 0 .611-.303l1.545-1.544a.533.533 0 0 0 .157-.46" fill="#C33" fill-rule="evenodd"/></svg>