<svg width="442" height="35" viewBox="0 0 442 35" xmlns="http://www.w3.org/2000/svg"><title>печати</title><path d="M390.28.008h-16.312V34.82h7.17V7.177h9.142V34.82h7.169V.008zm-30.579 0l-7.999 12.02-7.999-12.02h-7.169V34.82h7.17V10.78l4.414 6.633 3.584 5.387 3.584-5.387 4.415-6.633v24.04h7.17V.007zm-65.768 0h-14.91v7.17h7.74v27.641h7.17V7.177h8.57V.008zm15.939.337v.03l-.102-.009-2.902 34.116h7.142l.737-8.513h7.423l.738 8.513h7.142L327.147.366l-.084.007V.345h-17.191zm6.475 7.169h4.224l.978 11.285h-6.18l.978-11.285zM433.909.008V34.82h7.168V.01zm-29.396 0v12.898h-.055v7.168h.055v7.576h-.055v7.168h.055v.001h23.943V12.906h-16.775V.008h-7.168zm7.168 20.066l9.605.001v7.575h-9.605v-7.576zM265.827.008V27.65h-7.474V.008h-7.17V27.65h-7.037V.008h-7.168V34.82h36.017V.01zM209.549 0l-10.52 20.713V.016h-7.17v34.811h7.17l10.534-20.714v20.714h7.169V.017zm-45.983 0l-10.52 20.713V.016h-7.169v34.811h7.169l10.534-20.714v20.714h7.169V.017zM37.793.008h-7.17V34.82h23.482v-7.17H37.793V21.8h7.543v-7.17h-7.543V7.177h16.312V.008zm-21.483 0H0V34.82h7.17V7.177h9.142V34.82h7.169V.008zm115.2 0h-14.908v7.17h7.74v27.641h7.17V7.177h8.57V.008zM93.199.345v.03l-.102-.009-2.902 34.116h7.142l.738-8.513h7.422l.738 8.513h7.142L110.474.366l-.084.007V.345H93.199zm6.475 7.169h4.224l.978 11.285h-6.18l.978-11.285zM76.26.008V10.42h-.007v6.682H67.11V10.42h-.003V.01h-7.166v24.258h16.31v10.55h7.17V.008z" fill-rule="evenodd"/></svg>